<svg xmlns="http://www.w3.org/2000/svg" width="40" height="40" viewBox="0 0 40 40">
    <defs>
        <clipPath id="clip-path">
            <circle id="Ellipse_79" cx="20" cy="20" r="20" fill="#5d95c7" transform="translate(448 690.486)"/>
        </clipPath>
        <clipPath id="clip-path-2">
            <path id="Path_3063" d="M20.829 9.87h-9.17v3.8h5.278c-.492 2.416-2.55 3.8-5.278 3.8a5.815 5.815 0 0 1 0-11.63 5.689 5.689 0 0 1 3.623 1.3l2.863-2.863A9.835 9.835 0 1 0 11.659 21.5c4.92 0 9.394-3.579 9.394-9.841a8.164 8.164 0 0 0-.224-1.789z" transform="translate(-1.818 -1.818)"/>
        </clipPath>
        <style>
            .cls-4{clip-path:url(#clip-path-2)}
        </style>
    </defs>
    <g id="googl-stock" transform="translate(-448 -690.486)">
        <circle id="bg" cx="20" cy="20" r="20" fill="#f3f4f6" transform="translate(448 690.486)"/>
        <g id="icon" clip-path="url(#clip-path)">
            <g id="Google__G__Logo" transform="translate(456.564 698.826)">
                <g id="Group_849" class="cls-4" transform="translate(1.818 1.818)">
                    <path id="Path_3062" fill="#fbbc05" d="M0 21.63V10l7.6 5.815z" transform="translate(-.895 -5.974)"/>
                </g>
                <g id="Group_850" class="cls-4" transform="translate(1.818 1.818)">
                    <path id="Path_3064" fill="#ea4335" d="M0 4.92l7.6 5.815 3.131-2.729 10.74-1.744V0H0z" transform="translate(-.895 -.895)"/>
                </g>
                <g id="Group_851" class="cls-4" transform="translate(1.818 1.818)">
                    <path id="Path_3066" fill="#34a853" d="M0 16.551L13.42 6.262l3.534.447L21.471 0v21.471H0z" transform="translate(-.895 -.895)"/>
                </g>
                <g id="Group_852" class="cls-4" transform="translate(1.818 1.818)">
                    <path id="Path_3068" fill="#4285f4" d="M27.474 26.551L13.607 15.815l-1.789-1.342L27.474 10z" transform="translate(-6.898 -5.974)"/>
                </g>
            </g>
        </g>
    </g>
</svg>
