<svg xmlns="http://www.w3.org/2000/svg" width="40" height="40" viewBox="0 0 40 40">
    <defs>
        <clipPath id="clip-path">
            <circle id="Ellipse_75" cx="20" cy="20" r="20" fill="#5d95c7" transform="translate(448 370)"/>
        </clipPath>
        <style>
            .cls-4{fill:#e82127}
        </style>
    </defs>
    <g id="tsla-stock" transform="translate(-448 -370)">
        <circle id="bg" cx="20" cy="20" r="20" fill="#f3f4f6" transform="translate(448 370)"/>
        <g id="logo" clip-path="url(#clip-path)">
            <g id="T" transform="translate(450.908 369.992)">
                <path id="path35" d="M18.387 32.464l2.859-16.078c2.725 0 3.584.3 3.709 1.518a6.427 6.427 0 0 0 2.75-2.066 20.2 20.2 0 0 0-7.214-1.738l-2.109 2.569-2.105-2.569a20.2 20.2 0 0 0-7.212 1.742 6.422 6.422 0 0 0 2.75 2.066c.125-1.22.983-1.519 3.69-1.52l2.882 16.08" class="cls-4" transform="translate(-.859 -1.895)"/>
                <path id="path37" d="M17.527 11.459a23.554 23.554 0 0 1 9.645 1.935 7.831 7.831 0 0 0 .573-1.182 27.97 27.97 0 0 0-10.218-1.991A27.967 27.967 0 0 0 7.31 12.212a9.885 9.885 0 0 0 .572 1.182 23.552 23.552 0 0 1 9.645-1.935" class="cls-4"/>
            </g>
        </g>
    </g>
</svg>
