<svg xmlns="http://www.w3.org/2000/svg" width="40" height="40" viewBox="0 0 40 40">
    <defs>
        <clipPath id="clip-path">
            <circle id="Ellipse_78" cx="20" cy="20" r="20" fill="#5d95c7" transform="translate(448 610.486)"/>
        </clipPath>
        <style>
            .cls-4{fill:#f90}.cls-5{fill-rule:evenodd}
        </style>
    </defs>
    <g id="amza-stock" transform="translate(-448 -610.486)">
        <circle id="bg" cx="20" cy="20" r="20" fill="#f3f4f6" transform="translate(448 610.486)"/>
        <g id="icon" clip-path="url(#clip-path)">
            <g id="amazon-icon-1" transform="translate(456.659 619.455)">
                <path id="Path_3058" d="M19.364 31.574c-9.049 4.306-14.664.7-18.259-1.485-.222-.138-.6.032-.272.409 1.2 1.452 5.122 4.952 10.245 4.952a11.928 11.928 0 0 0 8.558-3.285c.379-.484.111-.751-.272-.591zm2.541-1.4c-.243-.316-1.478-.375-2.255-.28s-1.946.568-1.845.854c.052.107.158.059.693.011s2.038-.243 2.351.166-.479 2.374-.624 2.69.053.4.316.187a4.1 4.1 0 0 0 1.044-1.528 3.573 3.573 0 0 0 .319-2.1z" class="cls-4" transform="translate(0 -13.458)"/>
                <path id="Path_3059" d="M16.6 9.329a5.673 5.673 0 0 1-.54 3.071 2.352 2.352 0 0 1-2.007 1.318c-1.114 0-1.762-.849-1.762-2.1 0-2.472 2.215-2.921 4.312-2.921zm2.928 7.071a.606.606 0 0 1-.685.069 7.139 7.139 0 0 1-1.664-1.934 5.738 5.738 0 0 1-4.779 2.108c-2.439 0-4.34-1.505-4.34-4.52a4.928 4.928 0 0 1 3.092-4.74A20.092 20.092 0 0 1 16.6 6.375V6a3.732 3.732 0 0 0-.351-2.1 1.941 1.941 0 0 0-1.628-.755 2.211 2.211 0 0 0-2.333 1.742.607.607 0 0 1-.5.53l-2.815-.3a.514.514 0 0 1-.432-.608C9.191 1.1 12.27.069 15.028.069A6.576 6.576 0 0 1 19.4 1.513c1.408 1.317 1.274 3.076 1.274 4.987v4.52a3.967 3.967 0 0 0 1.093 2.688.545.545 0 0 1-.008.771c-.591.494-1.644 1.411-2.223 1.925l-.008-.008" class="cls-5" transform="translate(-3.323)"/>
                <path id="Path_3060" d="M19.364 31.574c-9.049 4.306-14.664.7-18.259-1.485-.222-.138-.6.032-.272.409 1.2 1.452 5.122 4.952 10.245 4.952a11.928 11.928 0 0 0 8.558-3.285c.379-.484.111-.751-.272-.591zm2.541-1.4c-.243-.316-1.478-.375-2.255-.28s-1.946.568-1.845.854c.052.107.158.059.693.011s2.038-.243 2.351.166-.479 2.374-.624 2.69.053.4.316.187a4.1 4.1 0 0 0 1.044-1.528 3.573 3.573 0 0 0 .319-2.1z" class="cls-4" transform="translate(0 -13.458)"/>
                <path id="Path_3061" d="M16.6 9.329a5.673 5.673 0 0 1-.54 3.071 2.352 2.352 0 0 1-2.007 1.318c-1.114 0-1.762-.849-1.762-2.1 0-2.472 2.215-2.921 4.312-2.921zm2.928 7.071a.606.606 0 0 1-.685.069 7.139 7.139 0 0 1-1.664-1.934 5.738 5.738 0 0 1-4.779 2.108c-2.439 0-4.34-1.505-4.34-4.52a4.928 4.928 0 0 1 3.092-4.74A20.092 20.092 0 0 1 16.6 6.375V6a3.732 3.732 0 0 0-.351-2.1 1.941 1.941 0 0 0-1.628-.755 2.211 2.211 0 0 0-2.333 1.742.607.607 0 0 1-.5.53l-2.815-.3a.514.514 0 0 1-.432-.608C9.191 1.1 12.27.069 15.028.069A6.576 6.576 0 0 1 19.4 1.513c1.408 1.317 1.274 3.076 1.274 4.987v4.52a3.967 3.967 0 0 0 1.093 2.688.545.545 0 0 1-.008.771c-.591.494-1.644 1.411-2.223 1.925l-.008-.008" class="cls-5" transform="translate(-3.323)"/>
            </g>
        </g>
    </g>
</svg>
