<svg xmlns="http://www.w3.org/2000/svg" width="70" height="70" viewBox="0 0 70 70">
    <defs>
        <style>
            .cls-1{fill:none}.cls-4{fill:#fff}
        </style>
    </defs>
    <g id="bidu-stock" transform="translate(0 0.01)">
        <path id="bg" d="M0 0H70V70H0z" class="cls-1" transform="translate(0 -0.01)"/>
        <g id="icon" transform="translate(9.749 15.589)">
            <g id="bg-2" fill="#fff" stroke="#e5e7eb" transform="translate(-6.749 -12.599)">
                <circle cx="32" cy="32" r="32" stroke="none"/>
                <circle cx="32" cy="32" r="31.5" class="cls-1"/>
            </g>
            <g id="Baidu" transform="translate(-70.037 -8.194)">
                <path id="path2227" fill="#2319dc" d="M84.163 28.533c3.778-.812 3.263-5.332 3.152-6.32-.186-1.524-1.977-4.184-4.407-3.971-3.059.273-3.506 4.692-3.506 4.692-.414 2.046.989 6.414 4.761 5.6m7.017-7.578c2.086 0 3.772-2.4 3.772-5.373s-1.686-5.369-3.772-5.369-3.777 2.4-3.777 5.369 1.69 5.373 3.777 5.373m8.992.353c2.792.366 4.581-2.613 4.939-4.87a5.08 5.08 0 0 0-3.41-5.325c-1.981-.455-4.454 2.716-4.676 4.784-.272 2.53.359 5.053 3.148 5.411m11.056 3.791c0-1.079-.894-4.333-4.222-4.333s-3.775 3.071-3.775 5.24c0 2.071.173 4.959 4.314 4.869s3.683-4.689 3.683-5.776m-4.222 9.476a38.421 38.421 0 0 1-6.835-6.948c-3.421-5.322-8.274-3.155-9.9-.452a22.46 22.46 0 0 1-4.492 4.875c-.363.445-5.213 3.066-4.137 7.851s4.86 4.691 4.86 4.691a21.245 21.245 0 0 0 6.02-.45 12.681 12.681 0 0 1 6.026.177s7.556 2.534 9.621-2.342-1.166-7.4-1.166-7.4" transform="translate(0)"/>
                <path id="path2229" d="M98.448 50.637v3.212h-2.617a4.315 4.315 0 0 0-3.531 3.182 5.6 5.6 0 0 0 .387 3.394 4.306 4.306 0 0 0 3.074 2.122h4.911V50.672zm-.039 9.96H96.43a2.085 2.085 0 0 1-1.8-1.659 3.188 3.188 0 0 1 .141-1.835 2.312 2.312 0 0 1 1.517-1.344h2.118V60.6z" class="cls-4" transform="translate(-6.598 -20.716)"/>
                <path id="path2231" d="M112.037 57.777v6.252s.1 1.556 2.3 2.123h5.652v-8.376h-2.439v6.288h-2.327s-.744-.108-.884-.706V57.74z" class="cls-4" transform="translate(-16.76 -24.356)"/>
            </g>
        </g>
    </g>
</svg>
