<svg width="70" height="70" viewBox="0 0 70 70" fill="none" xmlns="http://www.w3.org/2000/svg">
<circle cx="35" cy="35" r="34.5" fill="white" stroke="#F4F4F4"/>
<g clip-path="url(#clip0)">
<path d="M38.9215 47.7952C38.9423 47.4892 39.0773 47.2025 39.2994 46.9932C39.5215 46.7839 39.814 46.6674 40.1179 46.6674C40.4218 46.6674 40.7143 46.7839 40.9364 46.9932C41.1585 47.2025 41.2935 47.4892 41.3143 47.7952C41.3143 48.1152 41.1887 48.4223 40.965 48.6491C40.7414 48.8759 40.4378 49.0042 40.1207 49.0056C39.9626 49.0079 39.8056 48.9782 39.6591 48.9181C39.5126 48.8581 39.3795 48.7691 39.2677 48.6562C39.1559 48.5433 39.0676 48.409 39.0082 48.2611C38.9487 48.1132 38.9192 47.9548 38.9215 47.7952ZM39.1625 47.7952C39.1646 47.9249 39.1922 48.0529 39.2436 48.1719C39.295 48.2908 39.3692 48.3983 39.4619 48.4882C39.5546 48.5781 39.664 48.6486 39.7838 48.6957C39.9036 48.7427 40.0314 48.7654 40.1599 48.7624C40.3399 48.7471 40.5117 48.6795 40.6544 48.5678C40.7972 48.4561 40.9049 48.305 40.9645 48.1329C41.0241 47.9608 41.0331 47.775 40.9904 47.5978C40.9477 47.4206 40.8551 47.2597 40.7238 47.1345C40.5925 47.0093 40.4281 46.9251 40.2504 46.8922C40.0728 46.8592 39.8895 46.8788 39.7226 46.9486C39.5558 47.0185 39.4125 47.1356 39.3101 47.2858C39.2077 47.436 39.1506 47.6129 39.1457 47.7952" fill="#E31837"/>
<path d="M40.7147 48.4796H40.4794L40.0815 47.8744H39.8405V48.4796H39.7061V47.1504H40.2664C40.3226 47.1413 40.38 47.1442 40.435 47.1588C40.49 47.1734 40.5414 47.1994 40.5858 47.2352C40.6387 47.2579 40.683 47.297 40.7122 47.3469C40.7414 47.3967 40.7541 47.4547 40.7483 47.5124C40.7483 47.7556 40.5466 47.8744 40.3057 47.8744L40.7147 48.4796ZM40.0815 47.716C40.2776 47.716 40.5186 47.7556 40.5186 47.5124C40.5186 47.354 40.3561 47.3144 40.1992 47.3144H39.8405V47.716H40.0815Z" fill="#E31837"/>
<path d="M34.4217 49.0057C42.7881 41.7656 54.5447 34.7235 61.0002 32.1894C60.0027 31.5446 58.4505 30.6226 56.6965 29.6158C48.3694 32.393 38.6469 38.5471 29.9556 45.5044C31.4349 46.63 32.9816 47.7952 34.4217 49.0057Z" fill="#E31837"/>
<path d="M30.5944 29.3329C29.3616 28.7334 28.0055 28.1677 26.9688 27.687C22.6245 29.9028 18.4658 32.4717 14.5342 35.3682C15.6549 35.9735 16.8485 36.6975 18.1206 37.4215C22.0484 34.3797 26.2208 31.6742 30.5944 29.3329Z" fill="#012169"/>
<path d="M38.0247 25.8769C36.5116 25.0285 31.2498 23.0488 27.6241 22.2173C26.5482 22.6189 25.0352 23.2185 23.9985 23.6653C27.5776 24.6018 31.0602 25.8802 34.399 27.4833C35.4974 26.9629 37.0104 26.3181 38.0247 25.8769Z" fill="#E31837"/>
<path d="M20.2329 25.3509C16.0149 27.3836 11.929 29.6847 8 32.2403C8.95824 32.6815 9.91646 33.0435 11.2277 33.6883C15.1491 30.9354 19.2808 28.5012 23.5839 26.4086C22.2671 25.9165 21.0342 25.5941 20.2329 25.3509Z" fill="#012169"/>
<path d="M41.5548 24.6269C42.6308 24.2649 43.8636 23.9425 44.9171 23.62C41.5026 22.1576 37.9873 20.9477 34.3989 20C33.8385 20.164 32.1574 20.6052 31.0087 20.9672C34.6125 21.9101 38.1384 23.1337 41.5548 24.6269ZM21.9082 39.7519C23.1859 40.5155 24.5363 41.5619 25.8308 42.4443C34.5558 35.6115 43.1631 30.3398 52.611 27.3645C51.2941 26.6801 50.1397 26.0749 48.6884 25.3509C43.0286 26.7989 33.3454 30.7018 21.9082 39.7519Z" fill="#E31837"/>
</g>
<defs>
<clipPath id="clip0">
<rect width="53" height="29" fill="white" transform="translate(8 20)"/>
</clipPath>
</defs>
</svg>
