<svg xmlns="http://www.w3.org/2000/svg" width="70" height="70" viewBox="0 0 70 70">
    <defs>
        <style>
            .cls-1{fill:none}.cls-4{fill:#e88603}.cls-5{fill:#eedc9a}
        </style>
    </defs>
    <g id="xau-stock" transform="translate(0 0.01)">
        <path id="bg" d="M0 0H70V70H0z" class="cls-1" transform="translate(0 -0.01)"/>
        <g id="icon" transform="translate(9.749 15.589)">
            <g id="bg-2" fill="#fff" stroke="#e5e7eb" transform="translate(-6.749 -12.599)">
                <circle cx="32" cy="32" r="32" stroke="none"/>
                <circle cx="32" cy="32" r="31.5" class="cls-1"/>
            </g>
            <g id="gold" transform="translate(-206.426 774.239)">
                <path id="Path_3424" fill="#edbe33" d="M217.784-686.723l1.689-3.337c.071-.14.155-.274.234-.41a.75.75 0 0 1 .543 0q2.38.691 4.762 1.373a.738.738 0 0 1 .452.234 1.216 1.216 0 0 1 .138.416c.434 2.188.882 4.373 1.306 6.562.042.18.2.191.338.232.765.223 1.534.435 2.3.658.238.069.5.1.659.336a1.172 1.172 0 0 1 .1.3q.638 3.168 1.266 6.338a.51.51 0 0 1-.06.492c-1.382-.387-2.765-.767-4.145-1.162q-7.819-2.24-15.635-4.489a.759.759 0 0 0-.35-.058v-.16c.51-.842.9-1.748 1.348-2.621.495-.958.965-1.929 1.451-2.892.063-.124.078-.291.25-.337a7.4 7.4 0 0 1 1.548.366 3.879 3.879 0 0 1 .423.121.286.286 0 0 0 .412-.182c.209-.448.439-.885.658-1.328a1.393 1.393 0 0 1 .313-.452z" transform="translate(0 -68.983)"/>
                <path id="Path_3425" d="M399.482-663.506a22.925 22.925 0 0 0-.444-2.425c-.3-1.577-.613-3.151-.921-4.727.01-.225.208-.259.354-.323 1.785-.786 3.564-1.583 5.347-2.373q3.334-1.477 6.664-2.964l6.883-3.061c.2-.02.237.141.294.271.875 2 1.74 4.006 2.631 6 .138.308.055.393-.216.513q-9.588 4.25-19.17 8.513a6.125 6.125 0 0 1-1.422.576z" class="cls-4" transform="translate(-167.977 -79.006)"/>
                <path id="Path_3426" d="M352.388-738.588c-.107-.949-.35-1.873-.529-2.809-.271-1.417-.559-2.831-.839-4.247-.017-.186.143-.206.255-.257q4.6-2.072 9.217-4.129c2.194-.984 4.393-1.957 6.583-2.95a16.6 16.6 0 0 1 1.586-.67c.154 0 .187.135.233.24q1.36 3.1 2.713 6.195a1.236 1.236 0 0 1 .05.192.417.417 0 0 1-.246.193q-2.778 1.24-5.553 2.485-3.323 1.492-6.648 2.977c-1.85.83-3.7 1.664-5.557 2.478-.257.113-.5.255-.763.352-.169.063-.355.162-.502-.05z" class="cls-4" transform="translate(-125.611 -12.201)"/>
                <path id="Path_3427" d="M317.629-765.849c-.154.207-.4.243-.617.34-1.675.753-3.345 1.514-5.021 2.264-2.149.961-4.3 1.91-6.453 2.871q-2.5 1.116-4.982 2.253c-.19.087-.419.1-.567.277q-2.731-.8-5.463-1.591a1.139 1.139 0 0 0-.239-.018c.941-.5 1.936-.883 2.91-1.313q7.194-3.172 14.393-6.332a1.149 1.149 0 0 1 .806-.071c1.741.45 3.488.881 5.233 1.32z" class="cls-5" transform="translate(-74.579)"/>
                <path id="Path_3428" d="M364.645-679.27c.176.126.338.018.487-.049 1.908-.854 3.811-1.719 5.72-2.573 2.151-.962 4.308-1.911 6.459-2.873 1.665-.745 3.322-1.508 4.991-2.246a13.9 13.9 0 0 1 1.613-.694l3.342.838c-.318.4-.819.466-1.241.663-1.362.638-2.747 1.229-4.123 1.838q-2.7 1.2-5.408 2.389c-1.522.675-3.04 1.358-4.561 2.034l-3.4 1.5a1.486 1.486 0 0 0-.518.292c-.968-.357-1.976-.577-2.959-.884-.147-.04-.357-.004-.402-.235z" class="cls-5" transform="translate(-137.868 -71.52)"/>
                <path id="Path_3429" d="M245.074-652.707c-.321.658-.644 1.315-.963 1.975-.058.121-.115.188-.271.14-.706-.22-1.417-.428-2.125-.64 1.104-.527 2.229-1.007 3.359-1.475z" class="cls-5" transform="translate(-27.29 -103)"/>
                <path id="Path_3430" d="M299.421-614.028l-.333-1.664c-.337-1.692-.667-3.385-1.018-5.074-.064-.31-.007-.336.277-.252 1.25.368 2.507.714 3.76 1.074.139.04.319.046.188.3-.925 1.822-1.834 3.652-2.75 5.478a.93.93 0 0 1-.124.138z" class="cls-4" transform="translate(-77.961 -131.468)"/>
            </g>
        </g>
    </g>
</svg>
