<svg width="70" height="70" viewBox="0 0 70 70" fill="none" xmlns="http://www.w3.org/2000/svg">
<path d="M0 35C0 15.67 15.67 0 35 0C54.33 0 70 15.67 70 35C70 54.33 54.33 70 35 70C15.67 70 0 54.33 0 35Z" fill="#DC2626"/>
<path d="M38.0998 44.414V50H31.6738V44.414H24.6178V40.634H31.6738V37.778H24.6178V33.998H29.2378L22.1398 20.684H29.3638L35.1598 32.234H35.2438L40.9978 20.684H47.8438L40.5358 33.998H45.1558V37.778H38.0998V40.634H45.1558V44.414H38.0998Z" fill="#DC2626"/>
<path d="M38.0998 44.414V50H31.6738V44.414H24.6178V40.634H31.6738V37.778H24.6178V33.998H29.2378L22.1398 20.684H29.3638L35.1598 32.234H35.2438L40.9978 20.684H47.8438L40.5358 33.998H45.1558V37.778H38.0998V40.634H45.1558V44.414H38.0998Z" fill="white"/>
<circle cx="35" cy="35" r="26.5" stroke="#DC2626" stroke-width="5"/>
<circle cx="35" cy="35" r="26.5" stroke="white" stroke-width="5"/>
</svg>
