<svg width="70" height="71" viewBox="0 0 70 71" fill="none" xmlns="http://www.w3.org/2000/svg">
<circle cx="35" cy="36" r="34.5" fill="white" stroke="#F4F4F4"/>
<path d="M35.3418 23.4781C37.5804 23.4534 39.7666 24.1616 41.5728 25.4964C43.379 26.8311 44.7079 28.7207 45.3602 30.8818H55C53.253 21.415 45.5124 15.0041 35.4196 15.0041C32.729 14.9491 30.055 15.4422 27.5576 16.454C25.0602 17.4658 22.7906 18.9754 20.8846 20.8926C18.9786 22.8099 17.4754 25.0953 16.4648 27.6123C15.4542 30.1292 14.957 32.826 15.0029 35.5413C15.0029 47.2975 23.732 56 35.4196 56C45.2859 56 53.1787 49.5868 54.9256 40.0438H45.3602C44.7383 42.2146 43.4301 44.1205 41.635 45.4714C39.8399 46.8222 37.6565 47.5437 35.4173 47.5261C28.8127 47.5261 24.1851 42.4105 24.1851 35.5413C24.1873 28.5936 28.7407 23.4781 35.3418 23.4781Z" fill="#0052FF"/>
</svg>
