<svg width="70" height="71" viewBox="0 0 70 71" fill="none" xmlns="http://www.w3.org/2000/svg">
<circle cx="35" cy="36" r="34.5" fill="white" stroke="#F4F4F4"/>
<path d="M56 36C56 32.0444 54.827 28.1776 52.6294 24.8886C50.4318 21.5996 47.3082 19.0362 43.6537 17.5224C39.9991 16.0087 35.9778 15.6126 32.0982 16.3843C28.2186 17.156 24.6549 19.0608 21.8579 21.8579C19.0608 24.6549 17.156 28.2186 16.3843 32.0982C15.6126 35.9778 16.0087 39.9991 17.5224 43.6537C19.0362 47.3082 21.5996 50.4318 24.8886 52.6294C28.1776 54.827 32.0444 56 36 56C41.3025 55.994 46.3861 53.8849 50.1355 50.1355C53.8849 46.3861 55.994 41.3025 56 36ZM34.2996 17.2146L19.2416 44.6454C17.8211 41.8993 17.0981 38.8459 17.1363 35.7544C17.1745 32.6629 17.9727 29.6282 19.4606 26.918C20.9484 24.2078 23.0803 21.9054 25.6681 20.2136C28.2559 18.5218 31.2202 17.4927 34.2996 17.217V17.2146ZM35.4304 35.6662L20.8319 44.0926L35.4304 17.5113V35.6662ZM35.4304 54.8477C32.314 54.7534 29.2695 53.8882 26.5692 52.3293C23.869 50.7705 21.5973 48.5667 19.9572 45.915L35.4304 36.9848V54.8477ZM40.4789 26.2034C40.4743 27.845 40.1235 29.4672 39.4492 30.964C38.775 32.4607 37.7925 33.7984 36.566 34.8896V17.5161C37.801 18.6005 38.7893 19.937 39.4643 21.4355C40.1393 22.9341 40.4852 24.5599 40.4789 26.2034ZM52.0357 26.0838L39.3852 33.383C40.8296 31.2669 41.605 28.7656 41.6109 26.2034C41.6176 24.5378 41.2947 22.8873 40.6607 21.3471C40.0267 19.8068 39.0942 18.4072 37.917 17.2289C40.7905 17.526 43.5575 18.4782 46.0054 20.0122C48.4532 21.5463 50.5166 23.6213 52.0369 26.0778L52.0357 26.0838ZM52.6064 44.941L37.1284 36L52.6052 27.0602C54.0865 29.8065 54.8619 32.8779 54.8619 35.9982C54.8619 39.1185 54.0865 42.1899 52.6052 44.9362L52.6064 44.941ZM52.0345 45.915C50.3945 48.5656 48.1234 50.7685 45.4241 52.3269C42.7248 53.8852 39.6814 54.7505 36.566 54.8453V36.9812L52.0345 45.915Z" fill="#0A0A23"/>
</svg>
