<svg width="70" height="70" viewBox="0 0 70 70" fill="none" xmlns="http://www.w3.org/2000/svg">
<path d="M0 35C0 15.67 15.67 0 35 0C54.33 0 70 15.67 70 35C70 54.33 54.33 70 35 70C15.67 70 0 54.33 0 35Z" fill="#0369A1"/>
<path d="M34.786 50.504C32.882 50.504 31.132 50.168 29.536 49.496C27.968 48.796 26.61 47.802 25.462 46.514C24.342 45.226 23.474 43.644 22.858 41.768C22.242 39.892 21.934 37.75 21.934 35.342C21.934 32.962 22.242 30.834 22.858 28.958C23.474 27.054 24.342 25.458 25.462 24.17C26.61 22.882 27.968 21.902 29.536 21.23C31.132 20.53 32.882 20.18 34.786 20.18C36.186 20.18 37.39 20.334 38.398 20.642C39.434 20.922 40.33 21.3 41.086 21.776C41.842 22.224 42.486 22.756 43.018 23.372C43.578 23.988 44.082 24.604 44.53 25.22L39.952 28.538C39.336 27.446 38.622 26.634 37.81 26.102C37.026 25.542 36.018 25.262 34.786 25.262C33.442 25.262 32.238 25.696 31.174 26.564C30.138 27.432 29.41 28.622 28.99 30.134H38.65V33.914H28.654V36.77H38.65V40.55H28.99C29.382 42.146 30.096 43.364 31.132 44.204C32.168 45.016 33.386 45.422 34.786 45.422C37.166 45.422 39.028 44.232 40.372 41.852L44.95 45.212C44.53 45.856 44.026 46.5 43.438 47.144C42.878 47.76 42.178 48.32 41.338 48.824C40.526 49.328 39.574 49.734 38.482 50.042C37.418 50.35 36.186 50.504 34.786 50.504Z" fill="#0369A1"/>
<path d="M34.786 50.504C32.882 50.504 31.132 50.168 29.536 49.496C27.968 48.796 26.61 47.802 25.462 46.514C24.342 45.226 23.474 43.644 22.858 41.768C22.242 39.892 21.934 37.75 21.934 35.342C21.934 32.962 22.242 30.834 22.858 28.958C23.474 27.054 24.342 25.458 25.462 24.17C26.61 22.882 27.968 21.902 29.536 21.23C31.132 20.53 32.882 20.18 34.786 20.18C36.186 20.18 37.39 20.334 38.398 20.642C39.434 20.922 40.33 21.3 41.086 21.776C41.842 22.224 42.486 22.756 43.018 23.372C43.578 23.988 44.082 24.604 44.53 25.22L39.952 28.538C39.336 27.446 38.622 26.634 37.81 26.102C37.026 25.542 36.018 25.262 34.786 25.262C33.442 25.262 32.238 25.696 31.174 26.564C30.138 27.432 29.41 28.622 28.99 30.134H38.65V33.914H28.654V36.77H38.65V40.55H28.99C29.382 42.146 30.096 43.364 31.132 44.204C32.168 45.016 33.386 45.422 34.786 45.422C37.166 45.422 39.028 44.232 40.372 41.852L44.95 45.212C44.53 45.856 44.026 46.5 43.438 47.144C42.878 47.76 42.178 48.32 41.338 48.824C40.526 49.328 39.574 49.734 38.482 50.042C37.418 50.35 36.186 50.504 34.786 50.504Z" fill="white"/>
<circle cx="35" cy="35" r="26.5" stroke="#0369A1" stroke-width="5"/>
<circle cx="35" cy="35" r="26.5" stroke="white" stroke-width="5"/>
</svg>
