<svg xmlns="http://www.w3.org/2000/svg" width="40" height="40" viewBox="0 0 40 40">
    <defs>
        <clipPath id="u8zu0ursaa">
            <circle cx="20" cy="20" r="20" fill="#5d95c7" transform="translate(448 450)"/>
        </clipPath>
    </defs>
    <g transform="translate(-448 -450)">
        <circle cx="20" cy="20" r="20" fill="#f3f4f6" transform="translate(448 450)"/>
        <g clip-path="url(#u8zu0ursaa)">
            <path d="M15.034 20.574a3.047 3.047 0 0 1-3.661.42 4.639 4.639 0 0 0-3.854 0c-1.707.737-2.612.522-3.64-.42C-1.924 14.6-1.068 5.5 5.527 5.158c1.6.086 2.719.884 3.661.951 1.4-.285 2.741-1.1 4.24-.994a5.164 5.164 0 0 1 4.047 2.135 4.707 4.707 0 0 0 .576 8.479 12.036 12.036 0 0 1-3.019 4.861zM9.06 5.093A4.875 4.875 0 0 1 13.514.04c.341 3.06-2.783 5.353-4.454 5.053z" transform="translate(458.994 458.96)"/>
        </g>
    </g>
</svg>
