<svg xmlns="http://www.w3.org/2000/svg" width="469.671" height="541.391" viewBox="0 0 469.671 541.391">
    <defs>
        <linearGradient id="linear-gradient" x2="1" y1=".5" y2=".5" gradientUnits="objectBoundingBox">
            <stop offset=".001" stop-color="#19c6bc"/>
            <stop offset="1" stop-color="#2280fc"/>
        </linearGradient>
        <style>
            .cls-1,.cls-10,.cls-12,.cls-8{fill:url(#linear-gradient)}.cls-2{opacity:.2}.cls-10,.cls-3{opacity:.3}.cls-4{opacity:.4}.cls-5,.cls-8{opacity:.5}.cls-6{opacity:.6}.cls-7{opacity:.7}.cls-9{opacity:.8}.cls-11{opacity:.9}.cls-12{opacity:.1}
        </style>
    </defs>
    <g id="banner" transform="translate(-826.5 -86.166)">
        <g id="image" transform="translate(908.462 180.643)">
            <g id="Group_193" transform="translate(128.486 152.963)">
                <g id="Group_192">
                    <path id="Path_2934" d="M1074.606 445.93a.456.456 0 0 1-.35-.163l-15.613-18.578a.455.455 0 0 1-.08-.451l8.318-22.8a.457.457 0 0 1 .35-.293l23.931-4.221a.458.458 0 0 1 .429.157l15.613 18.578a.457.457 0 0 1 .081.451l-8.318 22.8a.458.458 0 0 1-.35.293l-23.931 4.219a.413.413 0 0 1-.08.008zm-15.092-19.13l15.271 18.173 23.409-4.127 8.138-22.3-15.273-18.173-23.409 4.129z" class="cls-1" transform="translate(-1058.535 -399.42)"/>
                </g>
            </g>
            <g id="Group_195" transform="translate(126.665 152.372)">
                <g id="Group_194">
                    <path id="Path_2935" d="M1072.412 446.657a.461.461 0 0 1-.375-.195l-14.823-21.136a.455.455 0 0 1-.04-.457l10.928-23.389a.458.458 0 0 1 .375-.262l25.753-2.254a.458.458 0 0 1 .414.193l14.823 21.135a.457.457 0 0 1 .04.458l-10.928 23.387a.46.46 0 0 1-.375.263l-25.752 2.253zm-14.3-21.639l14.519 20.7 25.226-2.208 10.7-22.909-14.521-20.7-25.225 2.208z" class="cls-1" transform="translate(-1057.13 -398.964)"/>
                </g>
            </g>
            <g id="Group_197" transform="translate(124.917 151.987)">
                <g id="Group_196">
                    <path id="Path_2936" d="M1097.491 447.13h-27.5a.457.457 0 0 1-.4-.228l-13.75-23.774a.46.46 0 0 1 0-.459l13.75-23.772a.455.455 0 0 1 .4-.23h27.5a.455.455 0 0 1 .4.23l13.75 23.772a.461.461 0 0 1 0 .459l-13.75 23.774a.457.457 0 0 1-.4.228zm-27.237-.916h26.972l13.485-23.316-13.485-23.316h-26.972l-13.485 23.318z" class="cls-1" transform="translate(-1055.783 -398.667)"/>
                </g>
            </g>
            <g id="Group_199" transform="translate(123.272 149.292)">
                <g id="Group_198">
                    <path id="Path_2937" d="M1096.485 450.443h-.04l-29.144-2.55a.456.456 0 0 1-.375-.262l-12.369-26.469a.457.457 0 0 1 .04-.457l16.776-23.92a.468.468 0 0 1 .415-.193l29.144 2.55a.456.456 0 0 1 .375.262l12.369 26.47a.458.458 0 0 1-.04.457l-16.776 23.919a.456.456 0 0 1-.375.193zM1067.644 447l28.618 2.5 16.473-23.487-12.144-25.99-28.618-2.5-16.473 23.49z" class="cls-1" transform="translate(-1054.515 -396.589)"/>
                </g>
            </g>
            <g id="Group_201" transform="translate(121.766 146.562)">
                <g id="Group_200">
                    <path id="Path_2938" d="M1095.115 453.8a.428.428 0 0 1-.08-.007l-30.65-5.4a.455.455 0 0 1-.35-.293l-10.654-29.2a.46.46 0 0 1 .08-.451l20-23.795a.454.454 0 0 1 .431-.156l30.649 5.4a.458.458 0 0 1 .35.293l10.654 29.2a.457.457 0 0 1-.081.451l-20 23.795a.46.46 0 0 1-.349.163zm-30.311-6.266l30.131 5.313 19.657-23.39-10.472-28.7-30.131-5.314-19.656 23.39z" class="cls-1" transform="translate(-1053.354 -394.484)"/>
                </g>
            </g>
            <g id="Group_203" transform="translate(120.435 143.829)">
                <g id="Group_202">
                    <path id="Path_2939" d="M1093.349 457.157a.458.458 0 0 1-.118-.016l-31.981-8.57a.461.461 0 0 1-.323-.323l-8.583-31.932a.457.457 0 0 1 .118-.442l23.4-23.363a.46.46 0 0 1 .442-.119l31.982 8.57a.461.461 0 0 1 .323.323l8.583 31.932a.459.459 0 0 1-.118.444l-23.4 23.363a.457.457 0 0 1-.325.133zm-31.607-9.4l31.47 8.432 23.024-22.989-8.445-31.421-31.47-8.432-23.021 22.988z" class="cls-1" transform="translate(-1052.328 -392.377)"/>
                </g>
            </g>
            <g id="Group_205" transform="translate(119.318 141.124)">
                <g id="Group_204">
                    <path id="Path_2940" d="M1091.157 460.481a.464.464 0 0 1-.156-.027l-33.1-12.047a.455.455 0 0 1-.293-.35l-6.135-34.637a.458.458 0 0 1 .156-.431l26.964-22.591a.458.458 0 0 1 .45-.079l33.1 12.047a.454.454 0 0 1 .293.35l6.135 34.637a.462.462 0 0 1-.156.432l-26.965 22.59a.459.459 0 0 1-.293.106zm-32.694-12.845l32.6 11.867 26.559-22.25-6.043-34.116-32.6-11.867-26.559 22.251z" class="cls-1" transform="translate(-1051.467 -390.292)"/>
                </g>
            </g>
            <g id="Group_207" transform="translate(118.456 138.485)">
                <g id="Group_206">
                    <path id="Path_2941" d="M1088.51 463.725a.464.464 0 0 1-.193-.043l-33.961-15.836a.458.458 0 0 1-.262-.375L1050.8 410.2a.456.456 0 0 1 .195-.415l30.669-21.44a.461.461 0 0 1 .456-.04l33.961 15.836a.46.46 0 0 1 .262.375l3.291 37.276a.46.46 0 0 1-.193.416l-30.67 21.439a.466.466 0 0 1-.261.078zm-33.528-16.6l33.482 15.613L1118.7 441.6l-3.244-36.75-33.482-15.613-30.237 21.137z" class="cls-1" transform="translate(-1050.802 -388.257)"/>
                </g>
            </g>
            <g id="Group_209" transform="translate(117.895 135.951)">
                <g id="Group_208">
                    <path id="Path_2942" d="M1085.379 466.838a.445.445 0 0 1-.228-.061l-34.523-19.932a.458.458 0 0 1-.229-.4l-.03-39.809a.455.455 0 0 1 .23-.4l34.491-19.879a.456.456 0 0 1 .457 0l34.522 19.932a.458.458 0 0 1 .23.4l.03 39.809a.459.459 0 0 1-.228.4l-34.493 19.877a.446.446 0 0 1-.229.063zm-34.065-20.653l34.065 19.667 34.034-19.614-.03-39.281-34.065-19.667-34.033 19.61z" class="cls-1" transform="translate(-1050.369 -386.304)"/>
                </g>
            </g>
            <g id="Group_211" transform="translate(114.02 133.569)">
                <g id="Group_210">
                    <path id="Path_2943" d="M1082.578 469.767a.458.458 0 0 1-.262-.082l-34.739-24.325a.457.457 0 0 1-.193-.414l3.659-42.193a.456.456 0 0 1 .262-.375l38.4-17.868a.457.457 0 0 1 .456.04l34.738 24.324a.457.457 0 0 1 .193.414l-3.659 42.193a.454.454 0 0 1-.262.375l-38.4 17.868a.44.44 0 0 1-.193.043zm-34.259-25l34.3 24.021 37.918-17.646 3.612-41.665-34.3-24.02-37.918 17.643z" class="cls-1" transform="translate(-1047.382 -384.467)"/>
                </g>
            </g>
            <g id="Group_213" transform="translate(110.068 131.385)">
                <g id="Group_212">
                    <path id="Path_2944" d="M1079.352 472.451a.461.461 0 0 1-.295-.108l-34.559-29a.457.457 0 0 1-.157-.431l7.789-44.375a.458.458 0 0 1 .3-.352l42.349-15.377a.458.458 0 0 1 .45.079l34.559 29a.454.454 0 0 1 .157.429l-7.789 44.376a.458.458 0 0 1-.3.35l-42.349 15.377a.436.436 0 0 1-.155.032zm-34.062-29.638l34.154 28.659 41.852-15.2 7.7-43.854-34.156-28.66-41.852 15.2z" class="cls-1" transform="translate(-1044.334 -382.784)"/>
                </g>
            </g>
            <g id="Group_215" transform="translate(106.111 129.455)">
                <g id="Group_214">
                    <path id="Path_2945" d="M1075.678 474.823a.454.454 0 0 1-.323-.134l-33.937-33.937a.457.457 0 0 1-.118-.442l12.368-46.31a.46.46 0 0 1 .324-.324l46.306-12.369a.455.455 0 0 1 .441.119l33.937 33.936a.457.457 0 0 1 .118.442l-12.369 46.306a.46.46 0 0 1-.324.324l-46.301 12.374a.457.457 0 0 1-.122.015zm-33.426-34.532l33.564 33.563 45.8-12.233 12.233-45.8-33.564-33.563-45.8 12.233z" class="cls-1" transform="translate(-1041.284 -381.295)"/>
                </g>
            </g>
            <g id="Group_217" transform="translate(102.195 127.833)">
                <g id="Group_216">
                    <path id="Path_2946" d="M1071.542 476.816a.455.455 0 0 1-.35-.163l-32.819-39.113a.457.457 0 0 1-.08-.45l17.4-47.928a.456.456 0 0 1 .351-.294l50.221-8.816a.458.458 0 0 1 .431.157l32.818 39.113a.458.458 0 0 1 .08.45l-17.4 47.928a.457.457 0 0 1-.352.294l-50.221 8.816a.536.536 0 0 1-.079.006zm-32.3-39.661l32.481 38.707 49.7-8.724 17.222-47.43L1106.166 381l-49.7 8.724z" class="cls-1" transform="translate(-1038.265 -380.045)"/>
                </g>
            </g>
            <g id="Group_219" transform="translate(98.376 126.583)">
                <g id="Group_218">
                    <path id="Path_2947" d="M1066.933 478.354a.457.457 0 0 1-.375-.195l-31.158-44.494a.459.459 0 0 1-.04-.455l22.887-49.179a.456.456 0 0 1 .376-.263l54.041-4.685a.458.458 0 0 1 .414.193l31.155 44.493a.458.458 0 0 1 .041.455l-22.885 49.176a.458.458 0 0 1-.376.263l-54.041 4.686zm-30.629-45l30.852 44.061 53.514-4.64 22.663-48.7-30.852-44.061-53.514 4.641z" class="cls-1" transform="translate(-1035.32 -379.081)"/>
                </g>
            </g>
            <g id="Group_221" transform="translate(94.711 125.719)">
                <g id="Group_220">
                    <path id="Path_2948" d="M1119.55 479.414l-57.706-.044a.458.458 0 0 1-.4-.23l-28.888-50.04a.459.459 0 0 1 0-.458l28.814-50a.457.457 0 0 1 .4-.23l57.706.044a.464.464 0 0 1 .4.23l28.891 50.042a.459.459 0 0 1 0 .458l-28.814 50a.455.455 0 0 1-.403.228zm-57.441-.96l57.178.044 28.549-49.538-28.627-49.585-57.178-.044-28.549 49.54z" class="cls-1" transform="translate(-1032.495 -378.415)"/>
                </g>
            </g>
            <g id="Group_223" transform="translate(91.265 120.05)">
                <g id="Group_222">
                    <path id="Path_2949" d="M1117.427 486.383h-.04l-61.152-5.4a.457.457 0 0 1-.375-.263l-25.979-55.711a.458.458 0 0 1 .04-.457l35.172-50.314a.472.472 0 0 1 .415-.193l61.152 5.4a.458.458 0 0 1 .375.262l25.979 55.713a.454.454 0 0 1-.04.457l-35.174 50.311a.458.458 0 0 1-.373.195zm-60.849-6.288l60.625 5.352 34.87-49.882-25.756-55.234-60.624-5.35-34.87 49.881z" class="cls-1" transform="translate(-1029.838 -374.044)"/>
                </g>
            </g>
            <g id="Group_225" transform="translate(88.11 114.309)">
                <g id="Group_224">
                    <path id="Path_2950" d="M1114.537 493.438a.414.414 0 0 1-.081-.008l-64.306-11.39a.459.459 0 0 1-.35-.294l-22.366-61.452a.457.457 0 0 1 .079-.45l41.94-50.061a.455.455 0 0 1 .431-.157l64.307 11.391a.457.457 0 0 1 .35.293l22.367 61.452a.457.457 0 0 1-.079.45l-41.94 50.061a.458.458 0 0 1-.352.165zm-63.968-12.253l63.787 11.3 41.6-49.657-22.186-60.955-63.787-11.3-41.6 49.655z" class="cls-1" transform="translate(-1027.406 -369.619)"/>
                </g>
            </g>
            <g id="Group_227" transform="translate(85.321 108.561)">
                <g id="Group_226">
                    <path id="Path_2951" d="M1110.815 500.5a.462.462 0 0 1-.119-.016l-67.1-18.034a.456.456 0 0 1-.323-.323l-18.006-67.2a.457.457 0 0 1 .118-.442l49.088-49.165a.458.458 0 0 1 .444-.119l67.1 18.034a.456.456 0 0 1 .323.323l18.006 67.2a.457.457 0 0 1-.118.442l-49.088 49.165a.463.463 0 0 1-.325.135zm-66.722-18.866l66.584 17.9 48.716-48.791-17.87-66.688-66.584-17.9-48.716 48.791z" class="cls-1" transform="translate(-1025.256 -365.187)"/>
                </g>
            </g>
            <g id="Group_229" transform="translate(82.983 102.875)">
                <g id="Group_228">
                    <path id="Path_2952" d="M1106.2 507.49a.462.462 0 0 1-.157-.027l-69.434-25.333a.456.456 0 0 1-.295-.35l-12.851-72.887a.457.457 0 0 1 .156-.429l56.583-47.553a.457.457 0 0 1 .452-.08l69.434 25.333a.456.456 0 0 1 .294.35l12.851 72.887a.457.457 0 0 1-.156.429l-56.583 47.553a.456.456 0 0 1-.294.107zm-69.029-26.129l68.937 25.151 56.178-47.213-12.76-72.365-68.937-25.153-56.178 47.213z" class="cls-1" transform="translate(-1023.453 -360.803)"/>
                </g>
            </g>
            <g id="Group_231" transform="translate(81.181 97.327)">
                <g id="Group_230">
                    <path id="Path_2953" d="M1100.619 514.309a.465.465 0 0 1-.193-.043l-71.237-33.285a.457.457 0 0 1-.262-.375l-6.861-78.434a.456.456 0 0 1 .192-.415l64.374-45.149a.461.461 0 0 1 .457-.04l71.237 33.285a.456.456 0 0 1 .262.375l6.863 78.434a.458.458 0 0 1-.193.415l-64.374 45.149a.465.465 0 0 1-.265.083zm-70.8-34.045l70.757 33.061 63.941-44.846-6.817-77.909-70.757-33.061L1023 402.355z" class="cls-1" transform="translate(-1022.064 -356.525)"/>
                </g>
            </g>
            <g id="Group_233" transform="translate(80.008 92.002)">
                <g id="Group_232">
                    <path id="Path_2954" d="M1094.026 520.855a.457.457 0 0 1-.23-.062l-72.409-41.879a.459.459 0 0 1-.228-.4v-83.757a.459.459 0 0 1 .228-.4l72.409-41.879a.461.461 0 0 1 .459 0l72.408 41.879a.458.458 0 0 1 .228.4v83.759a.458.458 0 0 1-.228.4l-72.408 41.879a.455.455 0 0 1-.229.06zm-71.952-42.6l71.952 41.615 71.95-41.615v-83.234l-71.95-41.615-71.952 41.615z" class="cls-1" transform="translate(-1021.159 -352.42)"/>
                </g>
            </g>
            <g id="Group_235" transform="translate(71.796 86.994)">
                <g id="Group_234">
                    <path id="Path_2955" d="M1088.14 527.008a.456.456 0 0 1-.263-.083l-72.854-51.1a.461.461 0 0 1-.193-.415l7.767-88.767a.456.456 0 0 1 .262-.375l80.621-37.67a.458.458 0 0 1 .457.04l72.854 51.1a.461.461 0 0 1 .193.415l-7.767 88.768a.456.456 0 0 1-.262.374l-80.621 37.67a.456.456 0 0 1-.194.043zm-72.376-51.777l72.421 50.793 80.142-37.446 7.72-88.241-72.421-50.793-80.143 37.446z" class="cls-1" transform="translate(-1014.828 -348.559)"/>
                </g>
            </g>
            <g id="Group_237" transform="translate(63.484 82.407)">
                <g id="Group_236">
                    <path id="Path_2956" d="M1081.35 532.645a.456.456 0 0 1-.294-.106l-72.473-60.907a.46.46 0 0 1-.156-.431l16.461-93.353a.455.455 0 0 1 .293-.35l88.933-32.447a.459.459 0 0 1 .452.079l72.473 60.907a.459.459 0 0 1 .156.431l-16.461 93.353a.455.455 0 0 1-.293.35l-88.933 32.447a.473.473 0 0 1-.158.027zm-71.977-61.545l72.067 60.567 88.437-32.265 16.369-92.833L1114.179 346l-88.437 32.266z" class="cls-1" transform="translate(-1008.42 -345.023)"/>
                </g>
            </g>
            <g id="Group_239" transform="translate(55.158 78.353)">
                <g id="Group_238">
                    <path id="Path_2957" d="M1073.617 537.628a.457.457 0 0 1-.324-.134l-71.158-71.268a.455.455 0 0 1-.118-.441l26.1-97.409a.455.455 0 0 1 .323-.323l97.259-26.141a.458.458 0 0 1 .442.118l71.159 71.27a.457.457 0 0 1 .118.442l-26.1 97.408a.456.456 0 0 1-.323.324l-97.259 26.14a.464.464 0 0 1-.119.014zm-70.647-71.861l70.783 70.893 96.748-26 25.963-96.9-70.783-70.895-96.747 26z" class="cls-1" transform="translate(-1002.001 -341.897)"/>
                </g>
            </g>
            <g id="Group_241" transform="translate(46.921 74.949)">
                <g id="Group_240">
                    <path id="Path_2958" d="M1064.911 541.811a.457.457 0 0 1-.351-.164l-68.8-82.126a.457.457 0 0 1-.079-.45l36.693-100.812a.457.457 0 0 1 .35-.293l105.5-18.687a.457.457 0 0 1 .431.157l68.8 82.126a.458.458 0 0 1 .079.45l-36.693 100.812a.459.459 0 0 1-.35.294l-105.5 18.685a.419.419 0 0 1-.08.008zm-68.284-82.674l68.464 81.72 104.975-18.593 36.512-100.316-68.464-81.72-104.974 18.593z" class="cls-1" transform="translate(-995.65 -339.273)"/>
                </g>
            </g>
            <g id="Group_243" class="cls-2" transform="translate(38.881 72.325)">
                <g id="Group_242">
                    <path id="Path_2959" d="M1055.212 545.037a.456.456 0 0 1-.375-.2l-65.3-93.415a.455.455 0 0 1-.039-.455l48.232-103.437a.458.458 0 0 1 .375-.262l113.536-10.021a.459.459 0 0 1 .415.193l65.3 93.415a.455.455 0 0 1 .039.455l-48.232 103.436a.459.459 0 0 1-.375.262l-113.535 10.021zm-64.776-93.919l65 92.981 113.009-9.974 48.01-102.958-65-92.981-113.009 9.974z" class="cls-1" transform="translate(-989.451 -337.25)"/>
                </g>
            </g>
            <g id="Group_245" class="cls-3" transform="translate(31.165 70.613)">
                <g id="Group_244">
                    <path id="Path_2960" d="M1044.505 547.14a.459.459 0 0 1-.4-.228l-60.541-105.054a.458.458 0 0 1 0-.458l60.706-105.149a.458.458 0 0 1 .4-.228l121.253-.093a.457.457 0 0 1 .4.23l60.544 105.054a.456.456 0 0 1 0 .457l-60.706 105.149a.458.458 0 0 1-.4.228l-121.253.093zm-60.016-105.512l60.281 104.6 120.722-.093 60.443-104.689-60.279-104.6-120.724.093z" class="cls-1" transform="translate(-983.503 -335.93)"/>
                </g>
            </g>
            <g id="Group_247" class="cls-4" transform="translate(23.908 58.814)">
                <g id="Group_246">
                    <path id="Path_2961" d="M1161.3 561.643h-.04L1032.749 550.5a.454.454 0 0 1-.375-.262l-54.424-116.95a.461.461 0 0 1 .04-.457l74.085-105.8a.456.456 0 0 1 .415-.192L1181 337.976a.458.458 0 0 1 .375.263l54.425 116.948a.461.461 0 0 1-.04.457l-74.085 105.8a.462.462 0 0 1-.375.199zm-128.2-12.034l127.981 11.1 73.783-105.373-54.2-116.468-127.982-11.1-73.791 105.373z" class="cls-1" transform="translate(-977.907 -326.833)"/>
                </g>
            </g>
            <g id="Group_249" class="cls-5" transform="translate(17.259 46.776)">
                <g id="Group_248">
                    <path id="Path_2962" d="M1155.232 576.438a.389.389 0 0 1-.079-.008l-135.159-23.724a.454.454 0 0 1-.352-.294l-46.834-128.986a.461.461 0 0 1 .079-.45l88.326-105.26a.454.454 0 0 1 .429-.157l135.158 23.724a.457.457 0 0 1 .352.294l46.834 128.986a.459.459 0 0 1-.08.45l-88.323 105.26a.458.458 0 0 1-.351.165zm-134.819-24.588l134.637 23.634 87.985-104.857-46.654-128.488-134.637-23.634-87.985 104.857z" class="cls-1" transform="translate(-972.781 -317.552)"/>
                </g>
            </g>
            <g id="Group_251" class="cls-6" transform="translate(11.378 34.722)">
                <g id="Group_250">
                    <path id="Path_2963" d="M1147.419 591.251a.515.515 0 0 1-.118-.014l-141.039-37.676a.458.458 0 0 1-.324-.324L968.262 412.2a.458.458 0 0 1 .119-.442l103.364-103.364a.456.456 0 0 1 .441-.118l141.04 37.674a.456.456 0 0 1 .324.324l37.674 141.038a.457.457 0 0 1-.119.442l-103.363 103.363a.457.457 0 0 1-.323.134zm-140.666-38.506l140.528 37.538 102.99-102.99-37.537-140.528-140.528-37.538-102.99 102.991z" class="cls-1" transform="translate(-968.247 -308.259)"/>
                </g>
            </g>
            <g id="Group_253" class="cls-7" transform="translate(6.439 22.797)">
                <g id="Group_252">
                    <path id="Path_2964" d="M1137.724 605.907a.472.472 0 0 1-.157-.027l-145.976-53a.458.458 0 0 1-.3-.35l-26.844-152.968a.457.457 0 0 1 .157-.431l119.127-99.959a.458.458 0 0 1 .45-.08l145.978 53a.458.458 0 0 1 .295.352l26.846 152.967a.456.456 0 0 1-.157.429l-119.124 99.96a.452.452 0 0 1-.295.107zm-145.573-53.8l145.481 52.824 118.722-99.621-26.754-152.443-145.481-52.824-118.724 99.62z" class="cls-8" transform="translate(-964.44 -299.065)"/>
                </g>
            </g>
            <g id="Group_255" class="cls-9" transform="translate(2.627 11.164)">
                <g id="Group_254">
                    <path id="Path_2965" d="M1126.02 620.206a.465.465 0 0 1-.193-.043l-149.79-69.707a.46.46 0 0 1-.263-.375L961.5 385.483a.46.46 0 0 1 .193-.415l135.518-94.889a.455.455 0 0 1 .455-.04l149.789 69.706a.46.46 0 0 1 .263.376l14.271 164.6a.459.459 0 0 1-.193.415l-135.517 94.89a.462.462 0 0 1-.259.08zm-149.356-70.469l149.311 69.485 135.083-94.588-14.226-164.07-149.309-69.483-135.085 94.586z" class="cls-10" transform="translate(-961.501 -290.096)"/>
                </g>
            </g>
            <g id="Group_257" class="cls-11">
                <g id="Group_256">
                    <path id="Path_2966" d="M1112.214 633.926a.459.459 0 0 1-.228-.061L959.7 546.1a.457.457 0 0 1-.23-.4l.136-175.76a.457.457 0 0 1 .228-.4l152.417-88a.456.456 0 0 1 .457 0l152.281 87.763a.457.457 0 0 1 .229.4l-.136 175.76a.459.459 0 0 1-.228.4l-152.417 88a.461.461 0 0 1-.223.063zM960.391 545.44l151.823 87.5 151.958-87.734.136-175.231-151.823-87.5-151.958 87.734z" class="cls-12" transform="translate(-959.475 -281.489)"/>
                </g>
            </g>
        </g>
        <g id="image-2" class="cls-3" transform="translate(826.5 86.166)">
            <g id="Group_193-2" transform="translate(197.372 234.972)">
                <g id="Group_192-2">
                    <path id="Path_2934-2" d="M1083.222 470.866a.7.7 0 0 1-.538-.251l-23.984-28.538a.7.7 0 0 1-.123-.693l12.777-35.019a.7.7 0 0 1 .538-.45l36.76-6.483a.7.7 0 0 1 .66.241l23.983 28.538a.7.7 0 0 1 .124.693l-12.778 35.019a.7.7 0 0 1-.538.45l-36.761 6.481a.632.632 0 0 1-.12.012zm-23.182-29.383l23.46 27.917 35.96-6.34 12.5-34.256-23.46-27.917-35.96 6.342z" class="cls-1" transform="translate(-1058.535 -399.42)"/>
                </g>
            </g>
            <g id="Group_195-2" transform="translate(194.574 234.064)">
                <g id="Group_194-2">
                    <path id="Path_2935-2" d="M1080.6 472.227a.709.709 0 0 1-.576-.3l-22.77-32.467a.7.7 0 0 1-.062-.7l16.787-35.928a.7.7 0 0 1 .576-.4l39.56-3.463a.7.7 0 0 1 .636.3l22.77 32.467a.7.7 0 0 1 .062.7l-16.783 35.923a.707.707 0 0 1-.576.4l-39.558 3.461zm-21.961-33.24l22.3 31.8 38.761-3.387 16.444-35.191-22.306-31.8-38.749 3.391z" class="cls-1" transform="translate(-1057.13 -398.964)"/>
                </g>
            </g>
            <g id="Group_197-2" transform="translate(191.889 233.473)">
                <g id="Group_196-2">
                    <path id="Path_2936-2" d="M1119.852 473.113h-42.246a.7.7 0 0 1-.608-.351l-21.122-36.52a.709.709 0 0 1 0-.705L1077 399.02a.7.7 0 0 1 .608-.353h42.246a.7.7 0 0 1 .608.353l21.122 36.518a.707.707 0 0 1 0 .705l-21.122 36.52a.7.7 0 0 1-.61.35zm-41.839-1.407h41.433l20.716-35.816-20.716-35.817h-41.433L1057.3 435.89z" class="cls-1" transform="translate(-1055.783 -398.667)"/>
                </g>
            </g>
            <g id="Group_199-2" transform="translate(189.363 229.332)">
                <g id="Group_198-2">
                    <path id="Path_2937-2" d="M1118.987 479.316h-.062l-44.769-3.917a.7.7 0 0 1-.576-.4l-19-40.66a.7.7 0 0 1 .062-.7l25.77-36.745a.719.719 0 0 1 .638-.3l44.768 3.917a.7.7 0 0 1 .576.4l19 40.662a.7.7 0 0 1-.062.7l-25.77 36.743a.7.7 0 0 1-.575.3zm-44.3-5.284l43.962 3.845 25.3-36.079-18.655-39.925-43.962-3.845-25.3 36.079z" class="cls-1" transform="translate(-1054.515 -396.589)"/>
                </g>
            </g>
            <g id="Group_201-2" transform="translate(187.05 225.139)">
                <g id="Group_200-2">
                    <path id="Path_2938-2" d="M1117.505 485.6a.664.664 0 0 1-.124-.01l-47.082-8.3a.7.7 0 0 1-.538-.45l-16.361-44.86a.707.707 0 0 1 .124-.693l30.718-36.552a.7.7 0 0 1 .662-.239l47.082 8.3a.7.7 0 0 1 .538.45l16.366 44.854a.7.7 0 0 1-.124.693l-30.718 36.552a.706.706 0 0 1-.543.255zm-46.562-9.626l46.285 8.161 30.2-35.93-16.087-44.089-46.285-8.163-30.194 35.93z" class="cls-1" transform="translate(-1053.354 -394.484)"/>
                </g>
            </g>
            <g id="Group_203-2" transform="translate(185.005 220.941)">
                <g id="Group_202-2">
                    <path id="Path_2939-2" d="M1115.341 491.888a.7.7 0 0 1-.181-.024l-49.128-13.164a.708.708 0 0 1-.5-.5l-13.184-49.052a.7.7 0 0 1 .182-.679l35.944-35.888a.706.706 0 0 1 .679-.183l49.128 13.164a.708.708 0 0 1 .5.5l13.184 49.052a.705.705 0 0 1-.181.681l-35.944 35.888a.7.7 0 0 1-.499.205zm-48.552-14.441l48.343 12.953 35.368-35.314-12.973-48.267-48.343-12.953-35.368 35.314z" class="cls-1" transform="translate(-1052.328 -392.377)"/>
                </g>
            </g>
            <g id="Group_205-2" transform="translate(183.289 216.785)">
                <g id="Group_204-2">
                    <path id="Path_2940-2" d="M1112.437 498.112a.713.713 0 0 1-.239-.042l-50.846-18.506a.7.7 0 0 1-.45-.538l-9.424-53.207a.7.7 0 0 1 .239-.662l41.421-34.7a.7.7 0 0 1 .692-.122l50.845 18.506a.7.7 0 0 1 .45.538l9.424 53.207a.71.71 0 0 1-.239.663l-41.421 34.7a.705.705 0 0 1-.452.163zm-50.222-19.731l50.085 18.229 40.8-34.179-9.283-52.408-50.082-18.229-40.8 34.181z" class="cls-1" transform="translate(-1051.467 -390.292)"/>
                </g>
            </g>
            <g id="Group_207-2" transform="translate(181.964 212.732)">
                <g id="Group_206-2">
                    <path id="Path_2941-2" d="M1108.727 504.186a.712.712 0 0 1-.3-.066l-52.168-24.326a.7.7 0 0 1-.4-.576l-5.055-57.261a.7.7 0 0 1 .3-.638l47.112-32.935a.708.708 0 0 1 .7-.062l52.169 24.326a.707.707 0 0 1 .4.576l5.055 57.261a.707.707 0 0 1-.3.64l-47.114 32.933a.716.716 0 0 1-.399.128zm-51.5-25.5l51.433 23.983 46.448-32.469-4.983-56.452-51.433-23.983-46.448 32.469z" class="cls-1" transform="translate(-1050.802 -388.257)"/>
                </g>
            </g>
            <g id="Group_209-2" transform="translate(181.102 208.839)">
                <g id="Group_208-2">
                    <path id="Path_2942-2" d="M1104.149 510.016a.684.684 0 0 1-.35-.094l-53.032-30.622a.7.7 0 0 1-.353-.608l-.046-61.152a.7.7 0 0 1 .353-.61l52.979-30.53a.7.7 0 0 1 .7 0l53.031 30.618a.7.7 0 0 1 .353.608l.046 61.152a.705.705 0 0 1-.351.612l-52.979 30.532a.684.684 0 0 1-.351.094zm-52.328-31.726l52.328 30.212 52.28-30.13-.046-60.342-52.328-30.212-52.28 30.13z" class="cls-1" transform="translate(-1050.369 -386.304)"/>
                </g>
            </g>
            <g id="Group_211-2" transform="translate(175.15 205.18)">
                <g id="Group_210-2">
                    <path id="Path_2943-2" d="M1101.448 515.5a.7.7 0 0 1-.4-.125l-53.364-37.367a.7.7 0 0 1-.3-.636l5.62-64.815a.7.7 0 0 1 .4-.576l58.983-27.448a.7.7 0 0 1 .7.062l53.362 37.365a.7.7 0 0 1 .3.636l-5.621 64.815a.7.7 0 0 1-.4.576l-58.983 27.448a.676.676 0 0 1-.297.065zm-52.627-38.411l52.7 36.9 58.247-27.107 5.549-64-52.7-36.9-58.247 27.105z" class="cls-1" transform="translate(-1047.382 -384.467)"/>
                </g>
            </g>
            <g id="Group_213-2" transform="translate(169.079 201.826)">
                <g id="Group_212-2">
                    <path id="Path_2944-2" d="M1098.126 520.525a.708.708 0 0 1-.452-.165l-53.087-44.545a.7.7 0 0 1-.241-.661l11.965-68.166a.7.7 0 0 1 .454-.54l65.054-23.621a.7.7 0 0 1 .691.122l53.087 44.547a.7.7 0 0 1 .241.659l-11.965 68.168a.7.7 0 0 1-.454.538l-65.054 23.621a.668.668 0 0 1-.239.043zM1045.8 475l52.465 44.023 64.291-23.344 11.825-67.365-52.467-44.025-64.291 23.344z" class="cls-1" transform="translate(-1044.334 -382.784)"/>
                </g>
            </g>
            <g id="Group_215-2" transform="translate(163.001 198.86)">
                <g id="Group_214-2">
                    <path id="Path_2945-2" d="M1094.118 524.967a.7.7 0 0 1-.5-.205l-52.133-52.133a.7.7 0 0 1-.181-.679l19-71.133a.706.706 0 0 1 .5-.5l71.132-19a.7.7 0 0 1 .678.183l52.132 52.131a.7.7 0 0 1 .182.679l-19 71.133a.707.707 0 0 1-.5.5l-71.133 19a.7.7 0 0 1-.177.024zm-51.348-53.045l51.559 51.557 70.348-18.791 18.791-70.348-51.559-51.557-70.347 18.791z" class="cls-1" transform="translate(-1041.284 -381.295)"/>
                </g>
            </g>
            <g id="Group_217-2" transform="translate(156.986 196.368)">
                <g id="Group_216-2">
                    <path id="Path_2946-2" d="M1089.383 528.7a.7.7 0 0 1-.538-.251l-50.415-60.083a.7.7 0 0 1-.124-.691l26.733-73.623a.7.7 0 0 1 .54-.452l77.146-13.543a.7.7 0 0 1 .662.241l50.413 60.083a.7.7 0 0 1 .123.691l-26.733 73.623a.7.7 0 0 1-.54.452l-77.146 13.543a.814.814 0 0 1-.121.01zm-49.616-60.925l49.9 59.459 76.345-13.4 26.456-72.858-49.893-59.461-76.347 13.4z" class="cls-1" transform="translate(-1038.265 -380.045)"/>
                </g>
            </g>
            <g id="Group_219-2" transform="translate(151.119 194.448)">
                <g id="Group_218-2">
                    <path id="Path_2947-2" d="M1083.882 531.578a.7.7 0 0 1-.576-.3l-47.859-68.349a.7.7 0 0 1-.062-.7l35.157-75.546a.7.7 0 0 1 .578-.4l83.014-7.2a.7.7 0 0 1 .635.3l47.859 68.347a.7.7 0 0 1 .062.7l-35.157 75.546a.7.7 0 0 1-.578.4l-83.014 7.2zm-47.05-69.122l47.393 67.684 82.2-7.127 34.814-74.811-47.393-67.684-82.2 7.129z" class="cls-1" transform="translate(-1035.32 -379.081)"/>
                </g>
            </g>
            <g id="Group_221-2" transform="translate(145.489 193.121)">
                <g id="Group_220-2">
                    <path id="Path_2948-2" d="M1166.223 533.564l-88.645-.068a.7.7 0 0 1-.608-.353l-44.382-76.871a.7.7 0 0 1 0-.7l44.262-76.8a.7.7 0 0 1 .61-.353l88.644.068a.712.712 0 0 1 .609.353l44.38 76.871a.705.705 0 0 1 0 .7l-44.262 76.8a.7.7 0 0 1-.608.353zm-88.238-1.474l87.833.068 43.856-76.1-43.975-76.17-87.833-.068-43.856 76.1z" class="cls-1" transform="translate(-1032.495 -378.415)"/>
                </g>
            </g>
            <g id="Group_223-2" transform="translate(140.195 184.412)">
                <g id="Group_222-2">
                    <path id="Path_2949-2" d="M1164.386 546.613h-.062l-93.938-8.291a.7.7 0 0 1-.576-.4l-39.907-85.58a.7.7 0 0 1 .062-.7l54.03-77.289a.725.725 0 0 1 .637-.3l93.938 8.291a.7.7 0 0 1 .576.4l39.907 85.582a.7.7 0 0 1-.062.7l-54.029 77.289a.7.7 0 0 1-.576.298zm-93.472-9.659l93.127 8.221 53.565-76.626-39.563-84.849-93.127-8.219-53.565 76.624z" class="cls-1" transform="translate(-1029.838 -374.044)"/>
                </g>
            </g>
            <g id="Group_225-2" transform="translate(135.349 175.595)">
                <g id="Group_224-2">
                    <path id="Path_2950-2" d="M1161.251 559.821a.634.634 0 0 1-.124-.012l-98.784-17.5a.7.7 0 0 1-.538-.452l-34.358-94.4a.7.7 0 0 1 .121-.691L1092 369.87a.7.7 0 0 1 .661-.241l98.784 17.5a.7.7 0 0 1 .538.45l34.358 94.4a.7.7 0 0 1-.122.691l-64.426 76.9a.7.7 0 0 1-.542.251zM1062.987 541l97.985 17.356 63.906-76.279-34.078-93.637-97.985-17.354-63.906 76.277z" class="cls-1" transform="translate(-1027.406 -369.619)"/>
                </g>
            </g>
            <g id="Group_227-2" transform="translate(131.065 166.765)">
                <g id="Group_226-2">
                    <path id="Path_2951-2" d="M1156.687 573.048a.712.712 0 0 1-.183-.024l-103.068-27.7a.7.7 0 0 1-.5-.5L1025.28 441.6a.7.7 0 0 1 .181-.679l75.406-75.524a.7.7 0 0 1 .681-.183l103.068 27.7a.7.7 0 0 1 .5.5l27.659 103.227a.7.7 0 0 1-.181.679l-75.406 75.524a.711.711 0 0 1-.501.204zm-102.494-28.98l102.283 27.492 74.834-74.95-27.45-102.442-102.283-27.492-74.835 74.95z" class="cls-1" transform="translate(-1025.256 -365.187)"/>
                </g>
            </g>
            <g id="Group_229-2" transform="translate(127.473 158.03)">
                <g id="Group_228-2">
                    <path id="Path_2952-2" d="M1150.558 586.134a.71.71 0 0 1-.241-.042l-106.66-38.915a.7.7 0 0 1-.453-.538l-19.741-111.964a.7.7 0 0 1 .239-.659l86.919-73.048a.7.7 0 0 1 .694-.123l106.66 38.915a.7.7 0 0 1 .452.538l19.741 111.964a.7.7 0 0 1-.239.659l-86.919 73.047a.7.7 0 0 1-.452.166zM1044.52 546l105.9 38.636 86.3-72.525-19.6-111.163-105.9-38.638-86.3 72.525z" class="cls-1" transform="translate(-1023.453 -360.803)"/>
                </g>
            </g>
            <g id="Group_231-2" transform="translate(124.705 149.507)">
                <g id="Group_230-2">
                    <path id="Path_2953-2" d="M1142.735 598.9a.713.713 0 0 1-.3-.066l-109.43-51.13a.7.7 0 0 1-.4-.576l-10.54-120.486a.7.7 0 0 1 .3-.638l98.887-69.355a.708.708 0 0 1 .7-.062l109.43 51.13a.7.7 0 0 1 .4.576l10.542 120.486a.7.7 0 0 1-.3.638l-98.888 69.355a.715.715 0 0 1-.401.128zm-108.762-52.3l108.692 50.786 98.222-68.889-10.472-119.679-108.692-50.786-98.22 68.889z" class="cls-1" transform="translate(-1022.064 -356.525)"/>
                </g>
            </g>
            <g id="Group_233-2" transform="translate(122.903 141.327)">
                <g id="Group_232-2">
                    <path id="Path_2954-2" d="M1133.093 611.159a.7.7 0 0 1-.353-.1l-111.23-64.332a.7.7 0 0 1-.351-.61V417.456a.7.7 0 0 1 .351-.61l111.23-64.332a.708.708 0 0 1 .706 0l111.229 64.332a.7.7 0 0 1 .35.61v128.665a.7.7 0 0 1-.35.61l-111.229 64.332a.7.7 0 0 1-.353.096zm-110.528-65.442l110.528 63.926 110.526-63.926V417.861l-110.526-63.926-110.528 63.926z" class="cls-1" transform="translate(-1021.159 -352.42)"/>
                </g>
            </g>
            <g id="Group_235-2" transform="translate(110.288 133.634)">
                <g id="Group_234-2">
                    <path id="Path_2955-2" d="M1127.446 622.681a.7.7 0 0 1-.4-.127l-111.914-78.491a.707.707 0 0 1-.3-.638l11.931-136.358a.7.7 0 0 1 .4-.576l123.845-57.867a.7.7 0 0 1 .7.062l111.914 78.491a.707.707 0 0 1 .3.638l-11.931 136.36a.7.7 0 0 1-.4.574l-123.845 57.867a.7.7 0 0 1-.3.065zm-111.179-79.537l111.248 78.025 123.11-57.522 11.86-135.551-111.249-78.025-123.11 57.522z" class="cls-1" transform="translate(-1014.828 -348.559)"/>
                </g>
            </g>
            <g id="Group_237-2" transform="translate(97.52 126.589)">
                <g id="Group_236-2">
                    <path id="Path_2956-2" d="M1120.45 633.236a.7.7 0 0 1-.452-.163l-111.329-93.562a.706.706 0 0 1-.239-.661l25.286-143.4a.7.7 0 0 1 .45-.538l136.613-49.843a.705.705 0 0 1 .694.122l111.327 93.557a.706.706 0 0 1 .239.661l-25.286 143.4a.7.7 0 0 1-.45.538L1120.69 633.19a.727.727 0 0 1-.24.046zm-110.565-94.542l110.705 93.04 135.851-49.564 25.145-142.6-110.7-93.04-135.856 49.56z" class="cls-1" transform="translate(-1008.42 -345.023)"/>
                </g>
            </g>
            <g id="Group_239-2" transform="translate(84.731 120.36)">
                <g id="Group_238-2">
                    <path id="Path_2957-2" d="M1112.012 642.567a.7.7 0 0 1-.5-.205l-109.306-109.478a.7.7 0 0 1-.181-.677l40.094-149.634a.7.7 0 0 1 .5-.5l149.4-40.156a.7.7 0 0 1 .679.181l109.307 109.482a.7.7 0 0 1 .181.679l-40.094 149.631a.7.7 0 0 1-.5.5l-149.4 40.154a.711.711 0 0 1-.18.023zm-108.523-110.388l108.732 108.9 148.617-39.945 39.883-148.848-108.732-108.9-148.617 39.945z" class="cls-1" transform="translate(-1002.001 -341.897)"/>
                </g>
            </g>
            <g id="Group_241-2" transform="translate(72.077 115.132)">
                <g id="Group_240-2">
                    <path id="Path_2958-2" d="M1102.045 650.4a.7.7 0 0 1-.54-.251L995.814 523.992a.7.7 0 0 1-.122-.691l56.365-154.862a.7.7 0 0 1 .538-.45l162.056-28.705a.7.7 0 0 1 .661.241L1321 465.681a.7.7 0 0 1 .122.691l-56.365 154.862a.7.7 0 0 1-.538.452l-162.056 28.7a.645.645 0 0 1-.118.014zm-104.893-127l105.17 125.533 161.255-28.562 56.088-154.1L1214.5 340.74l-161.26 28.56z" class="cls-1" transform="translate(-995.65 -339.273)"/>
                </g>
            </g>
            <g id="Group_243-2" class="cls-2" transform="translate(59.727 111.101)">
                <g id="Group_242-2">
                    <path id="Path_2959-2" d="M1090.468 656.44a.7.7 0 0 1-.576-.3l-100.314-143.5a.7.7 0 0 1-.06-.7l74.092-158.892a.7.7 0 0 1 .575-.4l174.406-15.394a.7.7 0 0 1 .637.3l100.314 143.5a.7.7 0 0 1 .06.7l-74.091 158.886a.7.7 0 0 1-.576.4l-174.405 15.396zm-99.505-144.272L1090.811 655l173.6-15.322 73.751-158.157-99.852-142.832-173.6 15.322z" class="cls-1" transform="translate(-989.451 -337.25)"/>
                </g>
            </g>
            <g id="Group_245-2" class="cls-3" transform="translate(47.874 108.472)">
                <g id="Group_244-2">
                    <path id="Path_2960-2" d="M1077.211 660.378a.7.7 0 0 1-.61-.351l-93-161.377a.7.7 0 0 1 0-.7l93.253-161.522a.7.7 0 0 1 .607-.351l186.261-.143a.7.7 0 0 1 .609.353l93 161.377a.7.7 0 0 1 0 .7l-93.253 161.522a.7.7 0 0 1-.608.351l-186.26.144zM985.018 498.3l92.6 160.674 185.446-.144 92.849-160.817-92.6-160.674-185.448.144z" class="cls-1" transform="translate(-983.503 -335.93)"/>
                </g>
            </g>
            <g id="Group_247-2" class="cls-4" transform="translate(36.725 90.346)">
                <g id="Group_246-2">
                    <path id="Path_2961-2" d="M1259.62 687.534h-.062l-197.406-17.119a.7.7 0 0 1-.576-.4l-83.6-179.648a.708.708 0 0 1 .062-.7l113.8-162.531a.7.7 0 0 1 .638-.295l197.407 17.115a.7.7 0 0 1 .576.4L1374.063 524a.709.709 0 0 1-.062.7L1260.2 687.235a.71.71 0 0 1-.58.299zm-196.94-18.486l196.6 17.048 113.341-161.867-83.259-178.911-196.6-17.047-113.343 161.866z" class="cls-1" transform="translate(-977.907 -326.833)"/>
                </g>
            </g>
            <g id="Group_249-2" class="cls-5" transform="translate(26.512 71.854)">
                <g id="Group_248-2">
                    <path id="Path_2962-2" d="M1253.05 715.237a.6.6 0 0 1-.121-.012l-207.622-36.444a.7.7 0 0 1-.54-.452l-71.943-198.14a.708.708 0 0 1 .122-.691L1108.625 317.8a.7.7 0 0 1 .66-.241l207.62 36.444a.7.7 0 0 1 .54.452l71.944 198.14a.7.7 0 0 1-.124.691l-135.677 161.698a.7.7 0 0 1-.538.253zm-207.1-37.771l206.821 36.3L1387.927 552.7l-71.667-197.375-206.821-36.3-135.156 161.066z" class="cls-1" transform="translate(-972.781 -317.552)"/>
                </g>
            </g>
            <g id="Group_251-2" class="cls-6" transform="translate(17.478 53.338)">
                <g id="Group_250-2">
                    <path id="Path_2963-2" d="M1243.479 742.973a.8.8 0 0 1-.181-.022l-216.656-57.875a.7.7 0 0 1-.5-.5l-57.871-216.651a.7.7 0 0 1 .183-.679l158.781-158.781a.7.7 0 0 1 .677-.181l216.656 57.873a.7.7 0 0 1 .5.5l57.873 216.654a.7.7 0 0 1-.183.679l-158.783 158.778a.7.7 0 0 1-.496.205zm-216.079-59.15l215.871 57.664 158.203-158.207-57.662-215.871-215.871-57.664-158.206 158.21z" class="cls-1" transform="translate(-968.247 -308.259)"/>
                </g>
            </g>
            <g id="Group_253-2" class="cls-7" transform="translate(9.892 35.02)">
                <g id="Group_252-2">
                    <path id="Path_2964-2" d="M1230.629 770.416a.728.728 0 0 1-.241-.042l-224.239-81.422a.7.7 0 0 1-.454-.538L964.45 453.443a.7.7 0 0 1 .241-.661l183-153.551a.7.7 0 0 1 .691-.124l224.243 81.422a.7.7 0 0 1 .453.54l41.244 234.973a.7.7 0 0 1-.241.659l-183 153.551a.7.7 0 0 1-.452.164zm-223.619-82.647l223.478 81.145 182.373-153.031-41.1-234.171-223.481-81.145L965.907 453.6z" class="cls-8" transform="translate(-964.44 -299.065)"/>
                </g>
            </g>
            <g id="Group_255-2" class="cls-9" transform="translate(4.036 17.149)">
                <g id="Group_254-2">
                    <path id="Path_2965-2" d="M1214.224 797.19a.714.714 0 0 1-.3-.066l-230.1-107.081a.706.706 0 0 1-.4-.576L961.5 436.623a.707.707 0 0 1 .3-.638l208.174-145.762a.7.7 0 0 1 .7-.062l230.1 107.079a.706.706 0 0 1 .4.578l21.926 252.843a.706.706 0 0 1-.3.638l-208.171 145.764a.709.709 0 0 1-.405.127zM984.793 688.94l229.362 106.738 207.506-145.3-21.854-252.034-229.36-106.736L962.94 436.906z" class="cls-10" transform="translate(-961.501 -290.096)"/>
                </g>
            </g>
            <g id="Group_257-2" class="cls-11">
                <g id="Group_256-2">
                    <path id="Path_2966-2" d="M1194.1 822.879a.706.706 0 0 1-.351-.094L959.828 687.97a.7.7 0 0 1-.353-.61l.209-269.992a.7.7 0 0 1 .351-.608l234.133-135.178a.7.7 0 0 1 .7 0L1428.794 416.4a.7.7 0 0 1 .353.61l-.21 269.99a.7.7 0 0 1-.351.61l-234.133 135.176a.707.707 0 0 1-.353.093zM960.882 686.954L1194.1 821.365l233.428-134.772.209-269.179L1194.519 283 961.091 417.775z" class="cls-12" transform="translate(-959.475 -281.489)"/>
                </g>
            </g>
        </g>
    </g>
</svg>
