<svg xmlns="http://www.w3.org/2000/svg" width="42.516" height="42.516" viewBox="0 0 42.516 42.516">
    <defs>
        <filter id="Ellipse_70" width="42.516" height="42.516" x="0" y="0" filterUnits="userSpaceOnUse">
            <feOffset dy="3"/>
            <feGaussianBlur result="blur" stdDeviation="3"/>
            <feFlood flood-opacity=".161"/>
            <feComposite in2="blur" operator="in"/>
            <feComposite in="SourceGraphic"/>
        </filter>
        <style>
            .cls-2{fill:#fff}
        </style>
    </defs>
    <g id="dolly-icon" transform="translate(9.226 6.226)">
        <g filter="url(#Ellipse_70)" transform="translate(-9.23 -6.23)">
            <circle id="Ellipse_70-2" cx="12.258" cy="12.258" r="12.258" fill="#5d95c7" transform="translate(9 6)"/>
        </g>
        <path id="Path_2865" d="M84.034 67.871a.684.684 0 0 0 .069-.634c-.159-.246-.467-.391-.685-.606a1.439 1.439 0 0 1-.205-.4c.157-.052.382-.2.461-.14a1.284 1.284 0 0 0 1.68.005c.08-.059.305.08.463.127a1.931 1.931 0 0 1-.248.419c-.139.141-.342.218-.482.358-.238.236-.347.669.01.854a1.277 1.277 0 0 0 1.11-.056 11.353 11.353 0 0 0 .318-1.4 11.092 11.092 0 0 1 1.413-3.614 2.357 2.357 0 0 1-1.416.056c-.343-.111.244-.768.752-.936a2.425 2.425 0 0 1 1-.083c.045-.177.085-.365.117-.573.119-.782-.049-1.656-.942-1.806-.421-.071-.751.231-1.069.457a3.322 3.322 0 0 1-3.242.26c-.486-.2-1.011-.811-1.565-.717-.893.151-1.062 1.024-.942 1.806.031.206.071.391.115.566a2.334 2.334 0 0 1 .921.089c.508.168 1.1.825.752.936a2.512 2.512 0 0 1-1.31-.011 10.8 10.8 0 0 1 1.397 3.572 10.425 10.425 0 0 0 .357 1.517 1.988 1.988 0 0 0 1.171-.046z" class="cls-2" transform="translate(-72.923 -53.829)"/>
        <path id="Path_2866" d="M108.675 147.719c-.5-.032-1.033-.333-1.46-.328a6.339 6.339 0 0 0-1.446.352 1.271 1.271 0 0 0 1.152.724l.006-.008h.664a1.239 1.239 0 0 0 1.084-.74z" class="cls-2" transform="translate(-95.623 -133.164)"/>
        <path id="Path_2867" fill="#003865" d="M62.7 36.255c-3.3.353-3.406 1.916-3.778.97a18.509 18.509 0 0 0-2.227-3.709.384.384 0 0 1 .1-.608 3.247 3.247 0 0 0 1.426-2.965c-.679-.405-1.893 0-2.681.349.017-.965-1.549-1.124-1.549-1.124-1.6-1.719-3.089-1.13-3.089-1.13-.025-.007-.051-.014-.077-.019a3.451 3.451 0 0 0-2.737.4.726.726 0 0 0-.12.085l-.015.012a2.841 2.841 0 0 0-2.868 1.862 4.395 4.395 0 0 0-2.636-.259c-.451 2.256 2.3 3.376 2.3 3.376-.994 3.749.182 3.754-.251 5.93a16.113 16.113 0 0 0-.118 4.56 24.151 24.151 0 0 0-.462 3.78 12.259 12.259 0 0 0 18.838-10.341c0-.395-.02-.785-.056-1.169zM43.013 30.49a6.893 6.893 0 0 1 1.755 1.519c.574.809-1.468 1.029-1.755-1.519zm10.927 2.321c-.032.208-.072.4-.117.573a2.425 2.425 0 0 0-1 .083c-.508.168-1.1.825-.752.936a2.357 2.357 0 0 0 1.416-.056 11.092 11.092 0 0 0-1.413 3.614 11.354 11.354 0 0 1-.318 1.4 1.277 1.277 0 0 1-1.11.056c-.356-.186-.247-.618-.01-.854.141-.14.343-.217.482-.358a1.931 1.931 0 0 0 .248-.419c-.158-.047-.383-.186-.463-.127a1.284 1.284 0 0 1-1.68-.005c-.079-.057-.3.088-.461.14a1.439 1.439 0 0 0 .205.4c.218.215.526.36.685.606a.684.684 0 0 1-.069.634 1.988 1.988 0 0 1-1.171.044 10.425 10.425 0 0 1-.357-1.517 10.8 10.8 0 0 0-1.392-3.569 2.512 2.512 0 0 0 1.31.011c.343-.111-.244-.768-.752-.936a2.334 2.334 0 0 0-.921-.089c-.044-.175-.084-.361-.115-.566-.119-.782.049-1.656.942-1.806.554-.093 1.079.515 1.565.717a3.322 3.322 0 0 0 3.242-.26c.318-.226.647-.528 1.069-.457.888.149 1.056 1.023.937 1.805zm2-.992A6.891 6.891 0 0 1 57.7 30.3c-.284 2.547-2.329 2.328-1.756 1.518z" transform="translate(-38.466 -25.391)"/>
        <path id="Path_2868" d="M107.59 148.457h-.664l-.006.008a1.271 1.271 0 0 1-1.152-.724 6.339 6.339 0 0 1 1.446-.352c.427 0 .955.3 1.46.328a1.239 1.239 0 0 1-1.084.74z" class="cls-2" transform="translate(-95.623 -133.164)"/>
    </g>
</svg>
