<svg xmlns="http://www.w3.org/2000/svg" width="141.259" height="30.115" viewBox="0 0 141.259 30.115">
    <defs>
        <style>
            .cls-1{fill:#fff}
        </style>
    </defs>
    <g id="dop-eco" transform="translate(-409.434 -402.875)">
        <path id="Path_3036" d="M434.939 434.268l-3.962-6.862h-17.464a5.356 5.356 0 0 1-4.078-3.086 5.923 5.923 0 0 0 .789 3.086l1.124 1.946 4.272 7.4a5.412 5.412 0 0 0 4.687 2.707H431.1a5.921 5.921 0 0 0 3.327-1.025c.018-.034 1.448-2.546.512-4.166z" class="cls-1" transform="translate(0 -6.466)"/>
        <path id="Path_3037" fill="#e4e4e4" d="M448.56 415.361l-5.248-9.09a5.906 5.906 0 0 0-1.928-2.019c-.117-.034-3.209-.925-4.293.951l-4.156 7.2 5.128 8.882 3.962 6.862c.935 1.621-.495 4.129-.514 4.164a5.915 5.915 0 0 0 1.8-1.935l.786-1.361 4.462-7.728a5.923 5.923 0 0 0 .001-5.926z" opacity="0.8" transform="translate(-7.087 -.343)"/>
        <path id="Path_3038" fill="#f3f3f3" d="M431.1 403.007h-10.5a5.922 5.922 0 0 0-5.128 2.961l-5.248 9.09a5.92 5.92 0 0 0-.789 2.834c.264 2.175 3.322 3.086 3.322 3.086h7.965l5.127-8.882L430 404.9c1.084-1.877 4.176-.986 4.293-.952a5.922 5.922 0 0 0-3.193-.941z" opacity="0.9" transform="translate(-.001 -.04)"/>
        <g id="Group_262" transform="translate(446.044 402.875)">
            <path id="Path_2980" d="M440.3 401.838h6.49c4.738 0 7.865 3.127 7.865 7.959 0 4.762-3.032 8.362-8.03 8.362H440.3zm3.53 13.479h2.653c3.127 0 4.525-2.345 4.525-5.52 0-2.677-1.3-5.116-4.5-5.116h-2.677z" class="cls-1" transform="translate(-440.302 -401.601)"/>
            <path id="Path_2981" d="M485.773 409.807c0 4.548-2.724 8.457-8.03 8.457-5.14 0-7.817-3.719-7.817-8.409 0-4.738 2.961-8.385 8.03-8.385 4.785-.001 7.817 3.339 7.817 8.337zm-12.2-.024c0 3.2 1.4 5.614 4.288 5.614 3.151 0 4.264-2.629 4.264-5.543 0-3.1-1.279-5.52-4.311-5.52-2.961.001-4.24 2.275-4.24 5.449z" class="cls-1" transform="translate(-450.929 -401.469)"/>
            <path id="Path_2982" d="M503.132 401.838h6.751c3.482 0 5.827 1.942 5.827 5.046 0 3.553-2.677 5.187-5.9 5.187h-3.151v6.088h-3.53zm3.53 7.414h2.7c1.634 0 2.8-.639 2.8-2.3 0-1.682-1.232-2.321-2.724-2.321h-2.772z" class="cls-1" transform="translate(-462.84 -401.601)"/>
            <path id="Path_2983" d="M530.577 401.838h6.751c3.482 0 5.827 1.942 5.827 5.046 0 3.553-2.677 5.187-5.9 5.187h-3.15v6.088h-3.53zm3.53 7.414h2.7c1.635 0 2.8-.639 2.8-2.3 0-1.682-1.232-2.321-2.724-2.321h-2.771z" class="cls-1" transform="translate(-472.685 -401.601)"/>
            <path id="Path_2984" d="M558.021 401.838h3.53v13.431h8.149l-.4 2.89h-11.279z" class="cls-1" transform="translate(-482.53 -401.601)"/>
            <path id="Path_2985" d="M594.427 411.124h-7.817v4.145h8.623l-.427 2.89h-11.63v-16.321h11.583v2.89h-8.149v3.482h7.817z" class="cls-1" transform="translate(-491.553 -401.601)"/>
        </g>
        <text id="DEFI_ECOSYSTEM" fill="#fff" font-family="HelveticaNeue, Helvetica Neue" font-size="10px" letter-spacing="0.148em" transform="translate(445.693 430.415)">
            <tspan x="0" y="0">DEFI ECOSYSTEM</tspan>
        </text>
    </g>
</svg>
