<svg xmlns="http://www.w3.org/2000/svg" width="141.188" height="29.54" viewBox="0 0 141.188 29.54">
    <defs>
        <linearGradient id="linear-gradient" x1=".978" x2=".188" y1=".5" y2=".5" gradientUnits="objectBoundingBox">
            <stop offset="0" stop-color="#a6d3ed"/>
            <stop offset="1" stop-color="#d4f0fc"/>
        </linearGradient>
        <linearGradient id="linear-gradient-2" x1=".748" x2=".185" y1=".702" y2=".168" gradientUnits="objectBoundingBox">
            <stop offset=".001" stop-color="#808082"/>
            <stop offset="1" stop-color="#414042"/>
        </linearGradient>
        <linearGradient id="linear-gradient-3" x1=".14" x2=".705" y1=".925" y2="-.015" gradientUnits="objectBoundingBox">
            <stop offset=".001" stop-color="#55aae3"/>
            <stop offset="1" stop-color="#ace4fb"/>
        </linearGradient>
        <style>
            .cls-1{fill:#17202c}
        </style>
    </defs>
    <g id="dop-eco" transform="translate(-383.324 -401.469)">
        <g id="Group_262" transform="translate(419.863 401.469)">
            <path id="Path_2980" d="M440.3 401.838h6.49c4.738 0 7.865 3.127 7.865 7.959 0 4.762-3.032 8.362-8.03 8.362H440.3zm3.53 13.479h2.653c3.127 0 4.525-2.345 4.525-5.52 0-2.677-1.3-5.116-4.5-5.116h-2.677z" class="cls-1" transform="translate(-440.302 -401.601)"/>
            <path id="Path_2981" d="M485.773 409.807c0 4.548-2.724 8.457-8.03 8.457-5.14 0-7.817-3.719-7.817-8.409 0-4.738 2.961-8.385 8.03-8.385 4.785-.001 7.817 3.339 7.817 8.337zm-12.2-.024c0 3.2 1.4 5.614 4.288 5.614 3.151 0 4.264-2.629 4.264-5.543 0-3.1-1.279-5.52-4.311-5.52-2.961.001-4.24 2.275-4.24 5.449z" class="cls-1" transform="translate(-450.929 -401.469)"/>
            <path id="Path_2982" d="M503.132 401.838h6.751c3.482 0 5.827 1.942 5.827 5.046 0 3.553-2.677 5.187-5.9 5.187h-3.151v6.088h-3.53zm3.53 7.414h2.7c1.634 0 2.8-.639 2.8-2.3 0-1.682-1.232-2.321-2.724-2.321h-2.772z" class="cls-1" transform="translate(-462.84 -401.601)"/>
            <path id="Path_2983" d="M530.577 401.838h6.751c3.482 0 5.827 1.942 5.827 5.046 0 3.553-2.677 5.187-5.9 5.187h-3.15v6.088h-3.53zm3.53 7.414h2.7c1.635 0 2.8-.639 2.8-2.3 0-1.682-1.232-2.321-2.724-2.321h-2.771z" class="cls-1" transform="translate(-472.685 -401.601)"/>
            <path id="Path_2984" d="M558.021 401.838h3.53v13.431h8.149l-.4 2.89h-11.279z" class="cls-1" transform="translate(-482.53 -401.601)"/>
            <path id="Path_2985" d="M594.427 411.124h-7.817v4.145h8.623l-.427 2.89h-11.63v-16.321h11.583v2.89h-8.149v3.482h7.817z" class="cls-1" transform="translate(-491.553 -401.601)"/>
        </g>
        <g id="Group_264" transform="translate(383.324 401.469)">
            <path id="Path_3002" fill="url(#linear-gradient)" d="M408.345 434l-3.887-6.732h-17.133a4.2 4.2 0 0 1-4-3.029 5.8 5.8 0 0 0 .774 3.029l1.1 1.908 4.19 7.259a5.311 5.311 0 0 0 4.6 2.655h10.585a5.807 5.807 0 0 0 3.265-1.006c.021-.033 1.424-2.493.506-4.084z" transform="translate(-383.324 -409.637)"/>
            <path id="Path_3003" fill="url(#linear-gradient-2)" d="M423.764 413.676l-5.149-8.918a5.8 5.8 0 0 0-1.891-1.98c-.115-.034-3.149-.907-4.212.933l-4.076 7.061 5.03 8.714 3.887 6.732c.918 1.59-.485 4.05-.5 4.084a5.806 5.806 0 0 0 1.766-1.9l.771-1.336 4.377-7.582a5.81 5.81 0 0 0-.003-5.808z" transform="translate(-392.332 -401.854)"/>
            <path id="Path_3004" fill="url(#linear-gradient-3)" d="M404.577 401.469h-10.3a5.808 5.808 0 0 0-5.031 2.9l-5.149 8.918a5.8 5.8 0 0 0-.774 2.781c.258 2.134 3.258 3.029 3.258 3.029h7.819l5.031-8.714 4.076-7.061c1.063-1.84 4.1-.967 4.212-.933a5.807 5.807 0 0 0-3.142-.92z" transform="translate(-383.325 -401.469)"/>
        </g>
        <text id="DEFI_ECOSYSTEM" fill="#17202c" font-family="HelveticaNeue, Helvetica Neue" font-size="10px" letter-spacing="0.148em" transform="translate(419.512 429.009)">
            <tspan x="0" y="0">DEFI ECOSYSTEM</tspan>
        </text>
    </g>
</svg>
