<svg xmlns="http://www.w3.org/2000/svg" xmlns:xlink="http://www.w3.org/1999/xlink" width="240.291" height="39.332" viewBox="0 0 240.291 39.332">
    <defs>
        <linearGradient id="linear-gradient" x1=".5" x2=".5" y1="1.193" y2="-.001" gradientUnits="objectBoundingBox">
            <stop offset=".001" stop-color="#00c4dd"/>
            <stop offset="1" stop-color="#0f9"/>
        </linearGradient>
        <linearGradient id="linear-gradient-2" x1=".5" x2=".5" y1=".031" y2="1.008" gradientUnits="objectBoundingBox">
            <stop offset=".001" stop-color="#0060d5"/>
            <stop offset="1" stop-color="#0f9"/>
        </linearGradient>
        <linearGradient id="linear-gradient-3" x1=".5" x2=".5" y1="1.046" y2=".068" gradientUnits="objectBoundingBox">
            <stop offset=".001" stop-color="#00c4dd"/>
            <stop offset="1" stop-color="#0060d5"/>
        </linearGradient>
        <linearGradient id="linear-gradient-4" x1=".5" x2=".5" y1="-.037" y2=".897" xlink:href="#linear-gradient"/>
        <linearGradient id="linear-gradient-5" x1=".5" x2=".5" y1=".939" y2=".06" xlink:href="#linear-gradient-2"/>
        <linearGradient id="linear-gradient-6" x1=".5" x2=".5" y1=".051" y2="1.04" xlink:href="#linear-gradient-3"/>
        <style>
            .cls-8{fill:#fff}
        </style>
    </defs>
    <g id="twindex-dop-dark" transform="translate(-165 -148.334)">
        <g id="logo" transform="translate(-289.71 -147.158)">
            <path id="Path_2974" fill="url(#linear-gradient)" d="M505.8 322.123a5.848 5.848 0 0 1-5.847-5.848v-20.783h-.005v22.737a16.561 16.561 0 0 1-6.349 13.049 16.522 16.522 0 0 0 10.247 3.546h6.854v-12.7z" transform="translate(3.375)"/>
            <path id="Path_2975" fill="url(#linear-gradient-2)" d="M488.616 318.229v-22.737h-.005v20.783a5.848 5.848 0 0 1-5.847 5.848h-4.9v12.7h6.852a16.516 16.516 0 0 0 10.246-3.546 16.563 16.563 0 0 1-6.346-13.048z" transform="translate(2.01)"/>
            <path id="Path_2976" fill="url(#linear-gradient-3)" d="M500.454 318.229v-22.737h-12.7v22.737a16.563 16.563 0 0 0 6.348 13.049 16.561 16.561 0 0 0 6.352-13.049z" transform="translate(2.868)"/>
            <path id="Path_2977" fill="url(#linear-gradient-4)" d="M459.608 308.193a5.848 5.848 0 0 1 5.848 5.848v20.783h.005v-22.737a16.563 16.563 0 0 1 6.348-13.049 16.519 16.519 0 0 0-10.247-3.546h-6.852v12.7z"/>
            <path id="Path_2978" fill="url(#linear-gradient-5)" d="M476.792 312.087v22.737h.005v-20.783a5.848 5.848 0 0 1 5.848-5.848h4.9v-12.7h-6.852a16.519 16.519 0 0 0-10.247 3.546 16.563 16.563 0 0 1 6.346 13.048z" transform="translate(1.366)"/>
            <path id="Path_2979" fill="url(#linear-gradient-6)" d="M464.6 311.8v22.737h12.7V311.8a16.563 16.563 0 0 0-6.348-13.049A16.563 16.563 0 0 0 464.6 311.8z" transform="translate(.859 .283)"/>
        </g>
        <path id="Line_22" fill="none" stroke="#9ca3af" d="M0 0L0 39" transform="translate(245.071 148.393)"/>
        <g id="dop-eco" transform="translate(-144.434 -249.602)">
            <g id="_1">
                <path id="Path_3036" d="M434.939 434.268l-3.962-6.862h-17.464a5.356 5.356 0 0 1-4.078-3.086 5.923 5.923 0 0 0 .789 3.086l1.124 1.946 4.272 7.4a5.412 5.412 0 0 0 4.687 2.707H431.1a5.921 5.921 0 0 0 3.327-1.025c.018-.034 1.448-2.546.512-4.166z" class="cls-8" transform="translate(0 -6.466)"/>
                <path id="Path_3037" fill="#e4e4e4" d="M448.56 415.361l-5.248-9.09a5.906 5.906 0 0 0-1.928-2.019c-.117-.034-3.209-.925-4.293.951l-4.156 7.2 5.128 8.882 3.962 6.862c.935 1.621-.495 4.129-.514 4.164a5.915 5.915 0 0 0 1.8-1.935l.786-1.361 4.462-7.728a5.923 5.923 0 0 0 .001-5.926z" opacity="0.8" transform="translate(-7.087 -.343)"/>
                <path id="Path_3038" fill="#f3f3f3" d="M431.1 403.007h-10.5a5.922 5.922 0 0 0-5.128 2.961l-5.248 9.09a5.92 5.92 0 0 0-.789 2.834c.264 2.175 3.322 3.086 3.322 3.086h7.965l5.127-8.882L430 404.9c1.084-1.877 4.176-.986 4.293-.952a5.922 5.922 0 0 0-3.193-.941z" opacity="0.9" transform="translate(-.001 -.04)"/>
            </g>
            <g id="_2" transform="translate(446.044 402.875)">
                <path id="Path_2980" d="M440.3 401.838h6.49c4.738 0 7.865 3.127 7.865 7.959 0 4.762-3.032 8.362-8.03 8.362H440.3zm3.53 13.479h2.653c3.127 0 4.525-2.345 4.525-5.52 0-2.677-1.3-5.116-4.5-5.116h-2.677z" class="cls-8" transform="translate(-440.302 -401.601)"/>
                <path id="Path_2981" d="M485.773 409.807c0 4.548-2.724 8.457-8.03 8.457-5.14 0-7.817-3.719-7.817-8.409 0-4.738 2.961-8.385 8.03-8.385 4.785-.001 7.817 3.339 7.817 8.337zm-12.2-.024c0 3.2 1.4 5.614 4.288 5.614 3.151 0 4.264-2.629 4.264-5.543 0-3.1-1.279-5.52-4.311-5.52-2.961.001-4.24 2.275-4.24 5.449z" class="cls-8" transform="translate(-450.929 -401.469)"/>
                <path id="Path_2982" d="M503.132 401.838h6.751c3.482 0 5.827 1.942 5.827 5.046 0 3.553-2.677 5.187-5.9 5.187h-3.151v6.088h-3.53zm3.53 7.414h2.7c1.634 0 2.8-.639 2.8-2.3 0-1.682-1.232-2.321-2.724-2.321h-2.772z" class="cls-8" transform="translate(-462.84 -401.601)"/>
                <path id="Path_2983" d="M530.577 401.838h6.751c3.482 0 5.827 1.942 5.827 5.046 0 3.553-2.677 5.187-5.9 5.187h-3.15v6.088h-3.53zm3.53 7.414h2.7c1.635 0 2.8-.639 2.8-2.3 0-1.682-1.232-2.321-2.724-2.321h-2.771z" class="cls-8" transform="translate(-472.685 -401.601)"/>
                <path id="Path_2984" d="M558.021 401.838h3.53v13.431h8.149l-.4 2.89h-11.279z" class="cls-8" transform="translate(-482.53 -401.601)"/>
                <path id="Path_2985" d="M594.427 411.124h-7.817v4.145h8.623l-.427 2.89h-11.63v-16.321h11.583v2.89h-8.149v3.482h7.817z" class="cls-8" transform="translate(-491.553 -401.601)"/>
            </g>
            <g id="_3" transform="translate(-1452.55 -871.932)">
                <path id="Path_3039" d="M1901.666 1296.489a3.9 3.9 0 0 1 2.782.92 3.684 3.684 0 0 1 .975 2.8 6.335 6.335 0 0 1-.219 1.747 3.267 3.267 0 0 1-.679 1.281 2.947 2.947 0 0 1-1.172.794 4.7 4.7 0 0 1-1.687.274h-2.683v-7.82zm.088 6.944a4.351 4.351 0 0 0 .438-.027 2.455 2.455 0 0 0 .558-.131 2.562 2.562 0 0 0 .586-.3 1.976 1.976 0 0 0 .52-.537 3.009 3.009 0 0 0 .378-.849 4.471 4.471 0 0 0 .148-1.232 5.233 5.233 0 0 0-.137-1.254 2.4 2.4 0 0 0-.449-.942 1.975 1.975 0 0 0-.8-.592 3.21 3.21 0 0 0-1.216-.2h-1.752v6.068z" class="cls-8" transform="translate(0 -1.043)"/>
                <path id="Path_3040" d="M1961.114 1296.489v.876h-4.359v2.486h4.063v.876h-4.063v2.705h4.392v.876h-5.432v-7.82z" class="cls-8" transform="translate(-48.146 -1.043)"/>
                <path id="Path_3041" d="M2010.854 1296.489v.876h-4.1v2.486h3.592v.876h-3.592v3.581h-1.04v-7.82z" class="cls-8" transform="translate(-90.581 -1.043)"/>
                <path id="Path_3042" d="M2054.373 1296.489v7.82h-1.041v-7.82z" class="cls-8" transform="translate(-130.989 -1.043)"/>
                <path id="Path_3043" d="M2108.879 1296.489v.876h-4.359v2.486h4.063v.876h-4.063v2.705h4.392v.876h-5.432v-7.82z" class="cls-8" transform="translate(-173.547 -1.043)"/>
                <path id="Path_3044" d="M2156.058 1296.552a2.419 2.419 0 0 0-1.418-.416 2.541 2.541 0 0 0-1.2.263 2.367 2.367 0 0 0-.821.706 3.043 3.043 0 0 0-.477 1.013 4.526 4.526 0 0 0-.154 1.183 5.061 5.061 0 0 0 .154 1.265 3.017 3.017 0 0 0 .477 1.041 2.343 2.343 0 0 0 .827.706 2.571 2.571 0 0 0 1.2.263 2.321 2.321 0 0 0 .915-.17 2.073 2.073 0 0 0 .69-.471 2.168 2.168 0 0 0 .455-.718 2.975 2.975 0 0 0 .2-.9h1.041a3.554 3.554 0 0 1-1.019 2.3 3.3 3.3 0 0 1-2.366.822 3.768 3.768 0 0 1-1.588-.312 3.116 3.116 0 0 1-1.128-.86 3.683 3.683 0 0 1-.674-1.292 5.523 5.523 0 0 1-.224-1.6 5.217 5.217 0 0 1 .241-1.6 3.863 3.863 0 0 1 .707-1.309 3.29 3.29 0 0 1 1.161-.882 3.742 3.742 0 0 1 1.594-.323 4.014 4.014 0 0 1 1.161.164 3.118 3.118 0 0 1 .975.482 2.705 2.705 0 0 1 .712.794 2.91 2.91 0 0 1 .373 1.1h-1.041a1.936 1.936 0 0 0-.773-1.249z" class="cls-8" transform="translate(-213.832)"/>
                <path id="Path_3045" d="M2208.858 1297.817a3.879 3.879 0 0 1 .707-1.309 3.446 3.446 0 0 1 1.172-.909 4.092 4.092 0 0 1 3.264 0 3.455 3.455 0 0 1 1.172.909 3.892 3.892 0 0 1 .706 1.309 5.148 5.148 0 0 1 0 3.078 3.889 3.889 0 0 1-.706 1.309 3.4 3.4 0 0 1-1.172.9 4.155 4.155 0 0 1-3.264 0 3.387 3.387 0 0 1-1.172-.9 3.877 3.877 0 0 1-.707-1.309 5.143 5.143 0 0 1 0-3.078zm.958 2.705a3.167 3.167 0 0 0 .482 1.035 2.459 2.459 0 0 0 .843.739 2.833 2.833 0 0 0 2.453 0 2.461 2.461 0 0 0 .843-.739 3.167 3.167 0 0 0 .482-1.035 4.521 4.521 0 0 0 0-2.333 3.172 3.172 0 0 0-.482-1.035 2.461 2.461 0 0 0-.843-.739 2.835 2.835 0 0 0-2.453 0 2.459 2.459 0 0 0-.843.739 3.171 3.171 0 0 0-.482 1.035 4.507 4.507 0 0 0 0 2.333z" class="cls-8" transform="translate(-262.776)"/>
                <path id="Path_3046" d="M2273.7 1296.514a2.208 2.208 0 0 0-1.331-.378 3.173 3.173 0 0 0-.646.066 1.717 1.717 0 0 0-.564.219 1.157 1.157 0 0 0-.394.411 1.272 1.272 0 0 0-.147.641.816.816 0 0 0 .213.586 1.583 1.583 0 0 0 .57.367 4.745 4.745 0 0 0 .8.236q.449.093.914.2t.915.257a3.019 3.019 0 0 1 .805.4 1.907 1.907 0 0 1 .569.635 2.227 2.227 0 0 1-.066 2.032 2.3 2.3 0 0 1-.718.723 3.12 3.12 0 0 1-.98.405 4.766 4.766 0 0 1-1.079.126 4.584 4.584 0 0 1-1.243-.164 3.071 3.071 0 0 1-1.03-.5 2.367 2.367 0 0 1-.7-.854 2.75 2.75 0 0 1-.257-1.232h.986a1.766 1.766 0 0 0 .192.849 1.738 1.738 0 0 0 .5.586 2.125 2.125 0 0 0 .729.339 3.337 3.337 0 0 0 .854.109 3.883 3.883 0 0 0 .706-.066 2.086 2.086 0 0 0 .641-.224 1.2 1.2 0 0 0 .635-1.134.982.982 0 0 0-.214-.657 1.568 1.568 0 0 0-.57-.411 4.178 4.178 0 0 0-.8-.257l-.915-.2q-.466-.1-.915-.241a3.29 3.29 0 0 1-.8-.362 1.619 1.619 0 0 1-.783-1.473 2.072 2.072 0 0 1 .241-1.024 2.106 2.106 0 0 1 .641-.712 2.875 2.875 0 0 1 .909-.416 4.019 4.019 0 0 1 1.046-.137 4.19 4.19 0 0 1 1.117.142 2.534 2.534 0 0 1 .9.449 2.173 2.173 0 0 1 .614.772 2.77 2.77 0 0 1 .246 1.111h-.986a1.63 1.63 0 0 0-.605-1.219z" class="cls-8" transform="translate(-314.3)"/>
                <path id="Path_3047" d="M2323.546 1304.309h-1.041v-3.2l-3.023-4.622h1.238l2.344 3.724 2.289-3.724h1.183l-2.99 4.622z" class="cls-8" transform="translate(-356.858 -1.043)"/>
                <path id="Path_3048" d="M2379.059 1296.514a2.208 2.208 0 0 0-1.331-.378 3.171 3.171 0 0 0-.646.066 1.717 1.717 0 0 0-.564.219 1.157 1.157 0 0 0-.394.411 1.269 1.269 0 0 0-.148.641.816.816 0 0 0 .214.586 1.591 1.591 0 0 0 .57.367 4.768 4.768 0 0 0 .8.236q.449.093.915.2t.914.257a3.018 3.018 0 0 1 .8.4 1.9 1.9 0 0 1 .57.635 2.23 2.23 0 0 1-.065 2.032 2.3 2.3 0 0 1-.718.723 3.116 3.116 0 0 1-.98.405 4.759 4.759 0 0 1-1.079.126 4.587 4.587 0 0 1-1.243-.164 3.072 3.072 0 0 1-1.029-.5 2.362 2.362 0 0 1-.7-.854 2.746 2.746 0 0 1-.258-1.232h.986a1.763 1.763 0 0 0 .192.849 1.739 1.739 0 0 0 .5.586 2.123 2.123 0 0 0 .728.339 3.341 3.341 0 0 0 .854.109 3.887 3.887 0 0 0 .707-.066 2.083 2.083 0 0 0 .64-.224 1.2 1.2 0 0 0 .636-1.134.981.981 0 0 0-.214-.657 1.57 1.57 0 0 0-.569-.411 4.189 4.189 0 0 0-.805-.257l-.915-.2q-.465-.1-.915-.241a3.284 3.284 0 0 1-.8-.362 1.618 1.618 0 0 1-.783-1.473 2.072 2.072 0 0 1 .241-1.024 2.106 2.106 0 0 1 .641-.712 2.878 2.878 0 0 1 .909-.416 4.018 4.018 0 0 1 1.046-.137 4.187 4.187 0 0 1 1.117.142 2.532 2.532 0 0 1 .9.449 2.173 2.173 0 0 1 .614.772 2.761 2.761 0 0 1 .246 1.111h-.986a1.631 1.631 0 0 0-.598-1.219z" class="cls-8" transform="translate(-403.715)"/>
                <path id="Path_3049" d="M2424.843 1297.365v-.876h6.254v.876h-2.607v6.943h-1.04v-6.943z" class="cls-8" transform="translate(-446.273 -1.043)"/>
                <path id="Path_3050" d="M2483.067 1296.489v.876h-4.359v2.486h4.063v.876h-4.063v2.705h4.392v.876h-5.432v-7.82z" class="cls-8" transform="translate(-491.103 -1.043)"/>
                <path id="Path_3051" d="M2529.24 1296.489l2.464 6.571 2.475-6.571h1.424v7.82h-.986v-6.509h-.022l-2.442 6.505h-.887l-2.442-6.505h-.022v6.505h-.986v-7.82z" class="cls-8" transform="translate(-533.661 -1.043)"/>
            </g>
        </g>
    </g>
</svg>
