<svg xmlns="http://www.w3.org/2000/svg" width="14.399" height="11.699" viewBox="0 0 14.399 11.699">
    <path fill="#03a9f4" d="M14.4 49.385a6.155 6.155 0 0 1-1.7.466A2.935 2.935 0 0 0 14 48.22a5.9 5.9 0 0 1-1.872.715 2.952 2.952 0 0 0-5.106 2.019 3.04 3.04 0 0 0 .068.673A8.355 8.355 0 0 1 1 48.538a2.953 2.953 0 0 0 .907 3.945 2.915 2.915 0 0 1-1.331-.363v.032a2.966 2.966 0 0 0 2.365 2.9 2.946 2.946 0 0 1-.774.1 2.61 2.61 0 0 1-.559-.05 2.98 2.98 0 0 0 2.758 2.056 5.931 5.931 0 0 1-3.66 1.259A5.529 5.529 0 0 1 0 58.375 8.31 8.31 0 0 0 4.528 59.7a8.344 8.344 0 0 0 8.4-8.4c0-.13 0-.256-.011-.382a5.889 5.889 0 0 0 1.483-1.533z" transform="translate(0 -48)"/>
</svg>
